<?xml version="1.0" encoding="UTF-8" standalone="no"?>
<svg width="33px" height="34px" viewBox="0 0 33 34" version="1.1" xmlns="http://www.w3.org/2000/svg" xmlns:xlink="http://www.w3.org/1999/xlink" xmlns:sketch="http://www.bohemiancoding.com/sketch/ns">
    <!-- Generator: Sketch 3.3.3 (12072) - http://www.bohemiancoding.com/sketch -->
    <title>Untitled</title>
    <desc>Created with Sketch.</desc>
    <defs></defs>
    <g id="Page-1" stroke="none" stroke-width="1" fill="none" fill-rule="evenodd" sketch:type="MSPage">
        <path d="M18.7658067,15.0479173 L18.7658067,10.9107753 C18.7658067,10.0229151 18.0565335,9.31729651 17.1816006,9.31729651 C16.3005678,9.31729651 15.5973945,10.0307213 15.5973945,10.9107753 L15.5973945,15.0479173 L11.4602525,15.0479173 C10.5723923,15.0479173 9.86677371,15.7571905 9.86677371,16.6321234 C9.86677371,17.5131561 10.5801985,18.2163295 11.4602525,18.2163295 L15.5973945,18.2163295 L15.5973945,22.3534715 C15.5973945,23.2413317 16.3066677,23.9469503 17.1816006,23.9469503 C18.0626333,23.9469503 18.7658067,23.2335255 18.7658067,22.3534715 L18.7658067,18.2163295 L22.9029487,18.2163295 C23.7908089,18.2163295 24.4964275,17.5070563 24.4964275,16.6321234 C24.4964275,15.7510906 23.7830027,15.0479173 22.9029487,15.0479173 L18.7658067,15.0479173 Z M0,4.99584915 C0,2.23671785 2.22861793,0 4.99929211,0 L27.7996434,0 C30.5606762,0 32.7989355,2.23325614 32.7989355,4.99584915 L32.7989355,28.2541508 C32.7989355,31.0132821 30.5703176,33.25 27.7996434,33.25 L4.99929211,33.25 C2.23825932,33.25 0,31.0167439 0,28.2541508 L0,4.99584915 Z" id="Rectangle-696-Copy-4" fill="#F9F9F9" sketch:type="MSShapeGroup"></path>
    </g>
</svg>