<?xml version="1.0" encoding="UTF-8" standalone="no"?><svg width="45" height="34" viewBox="0 0 45 34" xmlns="http://www.w3.org/2000/svg" xmlns:xlink="http://www.w3.org/1999/xlink"><view id="ico-adicionar" viewBox="0 0 33 34"/><svg width="33" height="34" viewBox="0 0 33 34"><title>Untitled</title><path d="M18.766 15.048V10.91a1.584 1.584 0 1 0-3.169 0v4.137H11.46a1.584 1.584 0 1 0 0 3.168h4.137v4.137a1.584 1.584 0 1 0 3.169 0v-4.137h4.137a1.584 1.584 0 1 0 0-3.168h-4.137zM0 4.996A4.991 4.991 0 0 1 5 0h22.8c2.76 0 4.999 2.233 4.999 4.996v23.258a4.991 4.991 0 0 1-5 4.996H5C2.24 33.25 0 31.017 0 28.254V4.996z" fill="#F9F9F9" fill-rule="evenodd"/></svg><view id="ico-cancelar" viewBox="33 0 12 12"/><svg width="12" height="12" viewBox="0 0 12 12" x="33"><title>Untitled</title><path d="M7.414 6l2.122-2.121L8.12 2.464 6 4.586 3.879 2.464 2.464 3.88 4.586 6 2.464 8.121 3.88 9.536 6 7.414l2.121 2.122L9.536 8.12 7.414 6z" fill="#00728A" fill-rule="evenodd"/></svg></svg>