<?xml version="1.0" standalone="no"?>
<!DOCTYPE svg PUBLIC "-//W3C//DTD SVG 1.1//EN" "http://www.w3.org/Graphics/SVG/1.1/DTD/svg11.dtd" >
<svg xmlns="http://www.w3.org/2000/svg">
<metadata></metadata>
<defs>
<font id="polarisbold" horiz-adv-x="1433" >
<font-face units-per-em="2048" ascent="1638" descent="-410" />
<missing-glyph horiz-adv-x="450" />
<glyph horiz-adv-x="2048" />
<glyph horiz-adv-x="2048" />
<glyph unicode="&#xd;" horiz-adv-x="2048" />
<glyph unicode=" "  horiz-adv-x="450" />
<glyph unicode="&#x09;" horiz-adv-x="450" />
<glyph unicode="&#xa0;" horiz-adv-x="450" />
<glyph unicode="!" horiz-adv-x="581" d="M127 1597h328l-60 -1128h-209zM137 0v307h307v-307h-307z" />
<glyph unicode="&#x22;" horiz-adv-x="872" d="M76 1597h321l-49 -512h-223zM475 1597h322l-49 -512h-224z" />
<glyph unicode="#" horiz-adv-x="1452" d="M63 356v262h211l84 328h-149v262h217l92 357h283l-92 -357h256l92 357h282l-92 -357h144v-262h-211l-84 -328h149v-262h-217l-92 -356h-283l92 356h-256l-92 -356h-282l92 356h-144zM557 618h256l84 328h-256z" />
<glyph unicode="$" horiz-adv-x="1140" d="M78 324l72 260q104 -56 196.5 -86.5t216.5 -30.5q63 0 106.5 8t73 32.5t29.5 65.5q0 52 -53 72q-38 15 -175 30l-24 3q-46 5 -80 10t-79.5 16.5t-78 25.5t-67.5 38t-56.5 54.5t-35.5 74.5t-14 98q0 76 28 137.5t74 101t108 66.5t127 38.5t134 11.5l51 215h248l-56 -234 q129 -24 234 -92l-64 -258q-101 56 -199 86t-225 27q-67 -2 -116.5 -26t-49.5 -71q0 -16 5 -27.5t19.5 -20t28.5 -14t45 -11t54 -8.5t70 -9q165 -19 235 -44q161 -56 189 -210q6 -35 6 -75q0 -79 -27.5 -143t-73.5 -105.5t-109 -70t-130.5 -40.5t-141.5 -12h-18l-51 -207 h-246l55 231q-143 32 -235 93z" />
<glyph unicode="%" horiz-adv-x="2349" d="M113 1153q0 219 113 329.5t315 110.5t315 -110.5t113 -329.5t-113 -329.5t-315 -110.5t-315 110.5t-113 329.5zM336 1153q0 -231 205 -231q204 0 204 231t-204 231q-205 0 -205 -231zM498 0l1065 1565h290l-1067 -1565h-288zM1380 412q0 219 113 329.5t315 110.5 t315 -110.5t113 -329.5t-113 -330t-315 -111t-315 111t-113 330zM1604 412q0 -232 204 -232q205 0 205 232q0 231 -205 231q-204 0 -204 -231z" />
<glyph unicode="&#x26;" horiz-adv-x="1501" d="M82 457q0 148 67.5 258.5t176.5 175.5q-152 144 -152 336q0 191 116.5 294t332.5 103q211 0 324.5 -110.5t113.5 -278.5q0 -191 -189 -332q-52 -39 -94 -59q114 -104 279 -232q22 71 22 168q0 99 -20 191l280 22q21 -81 25 -192q0 -217 -72 -379l115 -98v-351 q-157 124 -256 209q-187 -211 -518 -211q-87 0 -165 16t-149.5 52.5t-123 91.5t-82.5 138.5t-31 187.5zM365 457q0 -59 21 -103.5t50.5 -68t69.5 -37.5t68.5 -17.5t58.5 -3.5q189 0 301 131q-120 95 -420 351q-76 -52 -112.5 -110t-36.5 -142zM455 1229q0 -43 20 -84 t41.5 -65t58.5 -58l54 27q153 80 153 180q0 64 -41 98.5t-118 34.5q-168 0 -168 -133z" />
<glyph unicode="'" horiz-adv-x="473" d="M76 1597h321l-49 -512h-223z" />
<glyph unicode="(" horiz-adv-x="598" d="M76 717q0 288 63.5 552t161.5 431h277q-109 -236 -161 -474t-52 -509t52 -509t161 -474h-277q-98 167 -161.5 431t-63.5 552z" />
<glyph unicode=")" horiz-adv-x="598" d="M20 -266q109 236 161 474t52 509t-52 509t-161 474h277q98 -167 161.5 -431t63.5 -552t-63.5 -552t-161.5 -431h-277z" />
<glyph unicode="*" horiz-adv-x="667" d="M31 1307l59 182l164 -70l-16 178h192l-16 -178l164 70l59 -182l-174 -41l117 -136l-156 -112l-90 153l-90 -153l-156 112l117 136z" />
<glyph unicode="+" d="M164 662v274h416v416h274v-416h416v-274h-416v-416h-274v416h-416z" />
<glyph unicode="," horiz-adv-x="520" d="M39 -260l67 565h324l-184 -565h-207z" />
<glyph unicode="-" horiz-adv-x="757" d="M92 557v262h574v-262h-574z" />
<glyph unicode="." horiz-adv-x="520" d="M106 0v307h308v-307h-308z" />
<glyph unicode="/" horiz-adv-x="800" d="M23 -184l469 1966h286l-469 -1966h-286z" />
<glyph unicode="0" d="M106 782q0 413 143.5 612t467.5 199q322 0 466 -199t144 -612t-143 -612t-467 -199q-323 0 -467 199t-144 612zM393 782q0 -294 75.5 -421.5t248.5 -127.5t248 127t75 422t-75 422t-248 127t-248.5 -127.5t-75.5 -421.5z" />
<glyph unicode="1" d="M205 993v279q174 59 281 131.5t200 189.5h225v-1331h389v-262h-1069v262h400v922q-154 -127 -426 -191z" />
<glyph unicode="2" d="M102 0v20q0 111 15.5 204t41 163t69 129.5t87.5 101t110.5 81.5t124.5 66.5t140 59.5q14 6 47.5 20t49 21t46 21t46 23t40 24.5t37.5 28t29.5 30.5t24.5 35.5t14 39t6 44.5q0 50 -18 89t-46.5 62t-68 38t-78.5 20.5t-82 5.5q-154 0 -233.5 -57t-91.5 -195l-289 31 q43 487 614 487q94 0 178.5 -18.5t157 -57.5t125.5 -95.5t83 -135.5t30 -174q0 -86 -26 -156.5t-65 -117.5t-102.5 -89.5t-120.5 -70t-137 -62.5q-7 -2 -10.5 -3.5t-9 -4t-9.5 -4.5q-82 -34 -136.5 -59.5t-111 -59t-89.5 -65t-56.5 -72t-29.5 -86.5h935v-262h-1241z" />
<glyph unicode="3" d="M86 459l289 30q15 -139 87.5 -195t235.5 -58q181 -2 268 52t87 173q0 43 -9 76t-22.5 55t-38 37.5t-47 23.5t-58.5 12.5t-63 5.5t-70 1h-231v262h231q29 0 48 0.5t43.5 2.5t40 6t34 11t30 17t23 24.5t17.5 33t10 43.5t4 56q0 108 -76 155t-206 44q-160 0 -229.5 -53.5 t-84.5 -192.5l-286 31q19 236 162 358.5t438 122.5q120 0 219.5 -26t179 -80t124 -145.5t44.5 -213.5q0 -118 -52 -198t-132 -115q95 -30 168 -124t73 -230q0 -225 -160.5 -357.5t-478.5 -132.5q-297 0 -444 126t-168 362z" />
<glyph unicode="4" d="M92 344v191l727 1058h240v-985h276v-264h-276v-344h-279v344h-688zM438 608h342v512z" />
<glyph unicode="5" d="M115 453l288 28q17 -139 89 -193t223 -52q64 1 118.5 16.5t100.5 48t72.5 88.5t27.5 131q3 300 -295 303q-228 3 -321 -141l-240 55l82 828h971v-267h-721l-29 -292q96 69 267 69q274 0 421.5 -140t147.5 -415q0 -137 -46.5 -243.5t-129 -172.5t-190.5 -99.5t-236 -33.5 q-292 0 -435.5 122t-164.5 360z" />
<glyph unicode="6" d="M106 786q0 395 175 600t503 205q239 0 373 -110t154 -293l-287 -37q-15 96 -79 138t-183 42q-67 0 -122.5 -17.5t-92.5 -45t-65.5 -67.5t-44.5 -78.5t-26.5 -84.5t-14 -78t-5.5 -67q52 81 158 123.5t221 42.5q264 0 405.5 -140.5t141.5 -406.5q0 -174 -75.5 -297.5 t-205.5 -183.5t-301 -60q-326 0 -477.5 200.5t-151.5 614.5zM420 457q31 -120 105 -175t204 -55q134 2 216.5 72t82.5 213q0 146 -75.5 216.5t-207.5 70.5q-155 5 -249 -89.5t-76 -252.5z" />
<glyph unicode="7" d="M113 1298v267h1210v-183l-670 -1382h-305l565 1153l72 147l-278 -2h-594z" />
<glyph unicode="8" d="M104 430q0 149 63.5 245.5t160.5 135.5q-81 40 -132 129t-51 209t46 208.5t127.5 138.5t180.5 73.5t218 23.5q94 0 176 -14t155.5 -47t126 -83t83 -126.5t30.5 -173.5q0 -120 -51 -209t-131 -129q97 -39 160 -135t63 -246q0 -223 -152.5 -341t-459.5 -118t-460 118 t-153 341zM387 449q0 -211 330 -211t330 211q0 233 -330 233t-330 -233zM430 1130q0 -52 16.5 -90t42 -60t64.5 -35t77 -17t87 -4t87 4t77 17t64.5 35t42 60t16.5 90q0 195 -287 195t-287 -195z" />
<glyph unicode="9" d="M113 1053q0 174 75.5 297t205 183t300.5 60q326 0 477.5 -200.5t151.5 -614.5q0 -395 -175 -600t-503 -205q-238 0 -372 110.5t-154 293.5l287 37q15 -96 79 -138.5t183 -42.5q67 0 122.5 17.5t92.5 45.5t65.5 68t44 78t26 84.5t14 78.5t5.5 67q-52 -81 -158 -123.5 t-221 -42.5q-263 0 -404.5 140.5t-141.5 406.5zM401 1053q0 -146 75.5 -216.5t207.5 -70.5q155 -5 249.5 89.5t76.5 252.5q-31 120 -105 174.5t-205 54.5q-134 -2 -216.5 -71.5t-82.5 -212.5z" />
<glyph unicode=":" horiz-adv-x="520" d="M106 0v307h308v-307h-308zM106 680v307h308v-307h-308z" />
<glyph unicode=";" horiz-adv-x="520" d="M39 -260l67 565h324l-184 -565h-207zM106 680v307h308v-307h-308z" />
<glyph unicode="&#x3c;" d="M164 682v233l1106 500v-299l-522 -217l-263 -100l263 -101l522 -217v-299z" />
<glyph unicode="=" d="M164 426v274h1106v-274h-1106zM164 897v274h1106v-274h-1106z" />
<glyph unicode="&#x3e;" d="M164 182v299l522 217l262 101l-262 100l-522 217v299l1106 -500v-233z" />
<glyph unicode="?" horiz-adv-x="1218" d="M45 1157q21 226 154 346.5t403 120.5q243 0 383.5 -115t140.5 -333q0 -44 -7 -83t-17 -69.5t-29 -59.5t-34 -48.5t-43 -40.5t-45 -33t-49.5 -28t-48 -23t-49 -20.5t-44.5 -18.5q-75 -32 -107.5 -70t-29.5 -92q0 -44 18 -121h-221q-49 113 -51 188q0 69 17 119.5 t58.5 85.5t69 51t89.5 44q20 9 30 14q34 16 46 22t43 23.5t45 30.5t33 33.5t26.5 43.5t7.5 50q0 184 -232 184q-128 0 -191.5 -51.5t-78.5 -178.5zM395 0v307h307v-307h-307z" />
<glyph unicode="@" horiz-adv-x="2181" d="M90 600q0 318 123 552.5t352.5 360t540.5 125.5q240 0 429 -63t309 -176t182.5 -266.5t62.5 -337.5q0 -339 -139.5 -506.5t-448.5 -167.5h-170l-22 100q-28 -51 -103 -91t-174 -40q-95 0 -177.5 30.5t-147.5 91t-102.5 161t-37.5 229.5t37.5 229.5t102.5 161t147.5 91 t177.5 30.5q99 0 174 -40t103 -91l22 100h256l-18 -274v-432q142 3 197 108t55 310q0 279 -175 432t-540 153q-352 0 -546.5 -196.5t-194.5 -583.5q0 -388 197.5 -584t563.5 -196q234 0 365.5 57.5t153.5 132.5l292 -35q-12 -67 -47.5 -126.5t-102 -112.5t-160 -91 t-229 -60.5t-300.5 -22.5q-318 0 -546 126t-345 359t-117 553zM844 602q0 -132 56.5 -190t162.5 -58q92 0 152 51.5t75 122.5v148q-15 71 -75 122.5t-152 51.5q-106 0 -162.5 -58t-56.5 -190z" />
<glyph unicode="A" horiz-adv-x="1519" d="M10 0l582 1618h336l581 -1618h-309l-125 362h-631l-125 -362h-309zM524 604h471l-149 457l-86 270l-86 -270z" />
<glyph unicode="B" horiz-adv-x="1466" d="M156 0v1597h684q67 0 128 -10t126.5 -39.5t112.5 -77t77.5 -128.5t30.5 -187q0 -116 -42 -196.5t-104 -120.5q88 -37 142.5 -134t54.5 -237q0 -113 -28.5 -197.5t-74.5 -135t-115.5 -81.5t-139.5 -42t-158 -11h-694zM442 266h394q35 0 61.5 2.5t62 14.5t58 32.5t39 60.5 t16.5 95q0 56 -14.5 96.5t-35.5 62.5t-54 34.5t-61 16t-64 3.5h-402v-418zM442 950h377q101 0 151 41.5t50 153.5q0 109 -49 147.5t-152 38.5h-377v-381z" />
<glyph unicode="C" horiz-adv-x="1521" d="M113 799q0 191 38.5 340t118.5 259.5t213 169t314 58.5q296 0 448 -132.5t178 -373.5l-288 -30q-22 144 -100 207t-238 63q-95 0 -166 -30.5t-113.5 -80.5t-68 -125t-34.5 -151.5t-9 -173.5t9 -173.5t34.5 -151.5t68 -125t113.5 -80.5t166 -30.5q160 0 238 63t100 207 l288 -31q-26 -241 -178 -373.5t-448 -132.5q-145 0 -259.5 38.5t-194 109t-131.5 174t-75.5 229t-23.5 277.5z" />
<glyph unicode="D" horiz-adv-x="1579" d="M156 0v1597h565q370 0 555.5 -195t185.5 -603t-185.5 -603.5t-555.5 -195.5h-565zM442 266h279q122 0 209.5 37t139.5 108t75.5 166.5t23.5 221.5t-23.5 221.5t-75.5 166.5t-139.5 107.5t-209.5 36.5h-279v-1065z" />
<glyph unicode="E" horiz-adv-x="1449" d="M156 0v1597h1132v-266h-846v-381h750v-266h-750v-418h885v-266h-1171z" />
<glyph unicode="F" horiz-adv-x="1318" d="M156 0v1597h1091v-266h-805v-381h707v-266h-707v-684h-286z" />
<glyph unicode="G" horiz-adv-x="1617" d="M113 799q0 190 41.5 340t125.5 260t220 168.5t317 58.5q298 0 459.5 -134t187.5 -372l-288 -30q-22 141 -109 205.5t-250 64.5q-411 0 -411 -561t411 -561q221 0 354 73v322h-325v256h610v-750q-157 -97 -303.5 -132.5t-335.5 -35.5q-181 0 -317 58.5t-220 168.5 t-125.5 260t-41.5 341z" />
<glyph unicode="H" horiz-adv-x="1556" d="M156 0v1597h286v-647h672v647h287v-1597h-287v684h-672v-684h-286z" />
<glyph unicode="I" horiz-adv-x="655" d="M184 0v1597h287v-1597h-287z" />
<glyph unicode="J" horiz-adv-x="1136" d="M35 401l284 37q6 -103 47.5 -152.5t143.5 -49.5q110 0 152.5 47t42.5 149v1165h286v-1151q0 -111 -24 -194.5t-77.5 -148.5t-147 -98.5t-226.5 -33.5q-114 0 -199 23t-136 60.5t-83.5 95.5t-45.5 116.5t-17 134.5z" />
<glyph unicode="K" horiz-adv-x="1519" d="M156 0v1597h286v-702l193 221l438 481h389l-688 -727l719 -870h-381l-530 666l-140 -146v-520h-286z" />
<glyph unicode="L" horiz-adv-x="1241" d="M156 0v1597h286v-1331h758v-266h-1044z" />
<glyph unicode="M" horiz-adv-x="1855" d="M156 0v1597h333l330 -870l109 -301l108 301l330 870h334v-1597h-281v610l2 441l-88 -252l-295 -799h-221l-295 799l-88 252l2 -441v-610h-280z" />
<glyph unicode="N" horiz-adv-x="1566" d="M156 0v1597h264l551 -823l157 -246l-4 383v686h287v-1597h-264l-551 823l-158 246l4 -383v-686h-286z" />
<glyph unicode="O" horiz-adv-x="1658" d="M113 799q0 193 41.5 342.5t126.5 259.5t223.5 167.5t324.5 57.5t324.5 -58t224 -167.5t127 -259t41.5 -342.5t-41.5 -343t-127 -259.5t-224 -167.5t-324.5 -58t-324.5 58t-223.5 167.5t-126.5 259.5t-41.5 343zM403 799q0 -96 11 -175t40.5 -152.5t76.5 -123.5t122.5 -80 t175.5 -30t175.5 30t122 79.5t75.5 123.5t40 152.5t11 175.5t-11 175.5t-40 152.5t-75.5 123.5t-122 79.5t-175.5 30t-175.5 -30t-122.5 -80t-76.5 -123.5t-40.5 -152.5t-11 -175z" />
<glyph unicode="P" horiz-adv-x="1370" d="M156 0v1597h606q85 0 159.5 -13t147.5 -47.5t124.5 -89t83.5 -143t32 -204.5t-31.5 -205.5t-82.5 -144t-124 -89.5t-147 -48t-160 -13h-322v-600h-286zM442 868h342q230 0 230 232q0 58 -15 101.5t-37.5 67.5t-55 38.5t-60.5 19t-62 4.5h-342v-463z" />
<glyph unicode="Q" horiz-adv-x="1658" d="M113 799q0 193 41.5 342.5t126.5 259.5t223.5 167.5t324.5 57.5t324.5 -58t224 -167.5t127 -259t41.5 -342.5q0 -599 -387 -768v-2l90 -29l385 -131v-301l-1102 448q-144 52 -238.5 163.5t-137.5 265.5t-43 354zM403 799q0 -96 11 -175t40.5 -152.5t76.5 -123.5 t122.5 -80t175.5 -30t175.5 30t122 79.5t75.5 123.5t40 152.5t11 175.5t-11 175.5t-40 152.5t-75.5 123.5t-122 79.5t-175.5 30t-175.5 -30t-122.5 -80t-76.5 -123.5t-40.5 -152.5t-11 -175z" />
<glyph unicode="R" horiz-adv-x="1486" d="M156 0v1597h659q543 0 543 -485q0 -372 -316 -455l388 -657h-336l-359 627h-293v-627h-286zM442 895h392q36 0 63 3t60.5 16t55.5 35.5t37 64t15 98.5q0 58 -15 100t-37 64.5t-55.5 35.5t-60.5 16t-63 3h-392v-436z" />
<glyph unicode="S" horiz-adv-x="1480" d="M102 461l291 31q17 -137 102.5 -195.5t252.5 -58.5q64 1 121 13.5t107.5 39t80.5 74t30 110.5q0 105 -76 154.5t-272 68.5q-68 6 -124.5 14.5t-118 24.5t-109 38t-92 56t-73.5 77t-46.5 102t-17.5 131v6q0 94 30 173q30 81 82.5 137t126 94.5t158 56.5t178.5 18 q590 0 637 -487l-291 -31q-17 138 -98.5 195t-247.5 57q-47 -1 -92 -11t-92 -32.5t-76 -68t-29 -109.5q1 -58 27 -92t93 -56t190 -35q91 -8 158 -18t134.5 -27t114.5 -41t89.5 -59.5t67.5 -82.5t39.5 -110t14.5 -143v-6q0 -101 -34 -183q-34 -85 -93 -142.5t-140 -97 t-170.5 -57.5t-186.5 -18q-213 0 -352 57.5t-208 163.5t-86 269z" />
<glyph unicode="T" horiz-adv-x="1310" d="M47 1331v266h1217v-266h-465v-1331h-287v1331h-465z" />
<glyph unicode="U" horiz-adv-x="1581" d="M139 584v1013h287v-1013q0 -63 8.5 -111.5t33 -94t64 -75.5t105 -47.5t154.5 -17.5t154 18t105 47.5t64 75t32.5 94t8.5 111.5v1013h287v-1013q0 -109 -19.5 -198t-66.5 -167.5t-120.5 -132t-186 -84.5t-258.5 -31t-258.5 31t-186 84.5t-121 132t-67 167.5t-19.5 198z " />
<glyph unicode="V" horiz-adv-x="1519" d="M16 1597h318l299 -878l127 -377l127 377l299 878h317l-602 -1626h-283z" />
<glyph unicode="W" horiz-adv-x="1966" d="M51 1597h297l135 -737l54 -319l94 319l231 737h242l231 -737l95 -319l53 319l135 737h297l-334 -1626h-240l-266 854l-92 303l-92 -303l-266 -854h-240z" />
<glyph unicode="X" horiz-adv-x="1560" d="M51 0l453 662l110 157l-116 168l-416 610h340l225 -340l133 -202l133 202l226 340h340l-416 -610l-117 -168l111 -157l452 -662h-344l-245 369l-140 213l-139 -213l-246 -369h-344z" />
<glyph unicode="Y" horiz-adv-x="1474" d="M-25 1597h330l303 -475l129 -207l129 207l303 475h330l-618 -935v-662h-287v662z" />
<glyph unicode="Z" horiz-adv-x="1421" d="M80 0v205l754 985l114 143l-315 -2h-514v266h1220v-204l-753 -985l-115 -144l315 2h553v-266h-1259z" />
<glyph unicode="[" horiz-adv-x="598" d="M166 -266v1966h399v-266h-112v-1434h112v-266h-399z" />
<glyph unicode="\" horiz-adv-x="800" d="M23 1782h286l469 -1966h-286z" />
<glyph unicode="]" horiz-adv-x="598" d="M33 0h112v1434h-112v266h399v-1966h-399v266z" />
<glyph unicode="^" horiz-adv-x="1122" d="M37 799l393 827h262l393 -827h-299l-143 319l-82 187l-82 -187l-143 -319h-299z" />
<glyph unicode="_" horiz-adv-x="665" d="M45 -145h576v-265h-576v265z" />
<glyph unicode="`" horiz-adv-x="1228" d="M260 1638h309l193 -426h-275z" />
<glyph unicode="a" horiz-adv-x="1228" d="M90 309q0 89 27 151t83 100t124 59.5t168 35.5l331 47v23q0 145 -209 145h-6q-98 0 -142 -33q-44 -34 -56 -106l-285 37q13 79 40.5 137.5t80.5 108t143.5 75t216.5 25.5q238 0 367 -102.5t129 -309.5v-409l18 -293h-256l-22 135q-129 -164 -373 -164q-193 0 -286 91 t-93 247zM385 322q0 -54 36 -82.5t103 -30.5h14q104 0 180 57q82 61 105 140v88l-288 -48q-83 -14 -116.5 -41.5t-33.5 -82.5z" />
<glyph unicode="b" horiz-adv-x="1296" d="M113 0l18 293v1345h279v-669q110 145 317 145q231 0 358 -148t127 -423t-127 -423.5t-358 -148.5q-220 0 -336 168l-22 -139h-256zM410 416q16 -73 87.5 -128t172.5 -55q112 0 182 79.5t70 230.5t-70 230t-182 79q-102 0 -173 -54.5t-87 -127.5v-254z" />
<glyph unicode="c" horiz-adv-x="1179" d="M84 543q0 275 138.5 423t389.5 148q106 0 188.5 -19.5t136.5 -52.5t91.5 -82t56 -102t27.5 -119l-285 -37q-15 78 -63 116q-47 37 -149 36h-5q-117 -3 -180 -79.5t-63 -231.5t63 -232t180 -80h5q102 1 149 37q48 38 63 115l285 -37q-9 -66 -27.5 -119t-56 -102t-91.5 -82 t-136.5 -52.5t-188.5 -19.5q-251 0 -389.5 148.5t-138.5 423.5z" />
<glyph unicode="d" horiz-adv-x="1296" d="M84 543q0 275 127 423t358 148q208 0 318 -145v669h278v-1345l19 -293h-256l-23 139q-116 -168 -336 -168q-231 0 -358 148.5t-127 423.5zM375 543q0 -151 70 -230.5t182 -79.5q101 0 172.5 55t87.5 128v254q-16 73 -87 127.5t-173 54.5q-112 0 -182 -79t-70 -230z" />
<glyph unicode="e" horiz-adv-x="1222" d="M84 543q0 275 141 423t393 148t384.5 -147t132.5 -424v-107h-756q6 -111 72.5 -166t175.5 -55h8q181 0 209 129l284 -35q-54 -338 -495 -338q-261 0 -405 148t-144 424zM381 655h455q-9 215 -215 215q-105 0 -167.5 -53t-72.5 -162z" />
<glyph unicode="f" horiz-adv-x="894" d="M59 834v251h213v148q0 72 9.5 130.5t37.5 117t73.5 98t122 64t179.5 24.5q109 0 189 -33l-27 -264q-71 38 -141 38q-9 0 -17 -1q-80 -3 -113.5 -41t-33.5 -147v-134h291v-251h-291v-834h-279v834h-213z" />
<glyph unicode="g" horiz-adv-x="1296" d="M84 571q0 268 127.5 405.5t341.5 137.5q231 0 352 -168l23 139h256l-19 -292v-809q0 -208 -144.5 -315t-387.5 -107q-490 0 -518 342l288 41q8 -68 61 -102q48 -31 145 -31h18q249 3 260 168v192q-122 -143 -334 -143q-214 0 -341.5 137t-127.5 405zM375 571 q0 -148 68 -214t184 -66q102 0 173 54.5t87 127.5v197q-16 73 -87 127.5t-173 54.5q-116 0 -184 -66.5t-68 -214.5z" />
<glyph unicode="h" horiz-adv-x="1251" d="M121 0v1638h278v-675q60 72 145.5 111.5t184.5 39.5q190 0 301 -97t111 -286v-731h-279v690q0 82 -50 122t-140 40q-99 0 -175 -55.5t-98 -124.5v-672h-278z" />
<glyph unicode="i" horiz-adv-x="569" d="M131 1264v307h307v-307h-307zM145 0v1085h279v-1085h-279z" />
<glyph unicode="j" horiz-adv-x="569" d="M-186 -406l26 265q71 -38 141 -38q9 0 17 1q80 3 113.5 41t33.5 147v1075h279v-1089q0 -72 -9.5 -130.5t-37.5 -117t-73.5 -98t-122 -64t-179.5 -24.5q-110 0 -188 32zM131 1264v307h307v-307h-307z" />
<glyph unicode="k" horiz-adv-x="1222" d="M123 0v1638h276v-948l377 395h400l-494 -471l547 -614h-377l-358 434l-95 -92v-342h-276z" />
<glyph unicode="l" horiz-adv-x="569" d="M145 0v1638h279v-1638h-279z" />
<glyph unicode="m" horiz-adv-x="1830" d="M113 1085h256l22 -145q54 80 133 127t168 47q104 0 181.5 -41t121.5 -115q119 156 340 156q187 0 287 -104t100 -295v-715h-278v696q0 76 -42.5 116t-117.5 40q-84 0 -139.5 -51.5t-79.5 -128.5v-672h-279v696q0 77 -42 116.5t-117 39.5q-84 0 -139.5 -51.5t-79.5 -128.5 v-672h-277v793z" />
<glyph unicode="n" horiz-adv-x="1257" d="M113 1085h256l22 -145q59 82 147.5 128t190.5 46q195 0 307.5 -96.5t112.5 -286.5v-731h-279v690q0 82 -50 122t-140 40q-99 0 -174.5 -55.5t-97.5 -124.5v-672h-277v793z" />
<glyph unicode="o" horiz-adv-x="1232" d="M84 543q0 278 141 424.5t391 146.5t391.5 -146.5t141.5 -424.5t-141.5 -425t-391.5 -147t-391 147t-141 425zM371 543q0 -312 245 -312q246 0 246 312q0 311 -246 311q-245 0 -245 -311z" />
<glyph unicode="p" horiz-adv-x="1296" d="M113 1085h256l22 -139q116 168 336 168q231 0 358 -148t127 -423t-127 -423.5t-358 -148.5q-206 0 -317 146v-527h-279v1203zM410 416q16 -73 87.5 -128t172.5 -55q112 0 182 79.5t70 230.5t-70 230t-182 79q-102 0 -173 -54.5t-87 -127.5v-254z" />
<glyph unicode="q" horiz-adv-x="1296" d="M84 543q0 275 127 423t358 148q220 0 336 -168l23 139h256l-19 -292v-1203h-278v527q-111 -146 -318 -146q-231 0 -358 148.5t-127 423.5zM375 543q0 -151 70 -230.5t182 -79.5q101 0 172.5 55t87.5 128v254q-16 73 -87 127.5t-173 54.5q-112 0 -182 -79t-70 -230z" />
<glyph unicode="r" horiz-adv-x="905" d="M113 1085h256l22 -137q120 166 299 166q102 0 180 -29l-26 -274q-17 12 -59 22q-38 9 -80 9h-9q-101 -1 -182.5 -57.5t-105.5 -131.5v-653h-277v793z" />
<glyph unicode="s" horiz-adv-x="1136" d="M68 326l284 36q12 -78 62 -115q48 -36 144 -36h5q219 4 219 122q0 25 -10 43q-9 16 -22 25.5t-40 15.5t-51 8.5t-67 6.5q-10 1 -15.5 1.5t-14.5 1t-17 1.5q-42 4 -64.5 6t-62.5 7t-63 11t-57.5 15.5t-55 22t-46 29.5t-40.5 39.5t-29.5 50t-20.5 63t-6 76.5q0 78 29 141 t75 103t109 66t126 37t130 11q230 0 346 -83.5t138 -258.5l-283 -37q-20 139 -194 139h-7q-172 -4 -172 -112q1 -33 27 -51t54.5 -23t99.5 -12q8 -1 12.5 -1.5t12 -1t13.5 -1.5q164 -17 214 -29q158 -36 211 -144q32 -65 32 -161q0 -80 -29.5 -144t-78.5 -105t-116.5 -68 t-138 -38.5t-147.5 -11.5q-239 0 -357 91t-138 264z" />
<glyph unicode="t" horiz-adv-x="921" d="M49 834v251h193v285l278 53v-338h311v-251h-311v-414q0 -109 34 -147.5t114 -41.5q8 -1 16 -1q69 0 141 38l27 -264q-80 -33 -188 -33q-103 0 -179.5 24.5t-122 64t-73.5 98.5t-37.5 117.5t-9.5 130.5v428h-193z" />
<glyph unicode="u" horiz-adv-x="1257" d="M109 354v731h278v-690q0 -82 50.5 -122t140.5 -40q99 0 174.5 55.5t97.5 125.5v671h276v-792l19 -293h-256l-23 145q-59 -82 -147.5 -128t-190.5 -46q-195 0 -307 96.5t-112 286.5z" />
<glyph unicode="v" horiz-adv-x="1187" d="M18 1085h304l182 -499l90 -254l90 254l182 499h303l-452 -1114h-246z" />
<glyph unicode="w" horiz-adv-x="1658" d="M25 1085h299l88 -444l49 -260l84 260l149 444h275l149 -444l84 -260l49 260l88 444h299l-274 -1114h-279l-174 518l-77 242h-5l-77 -242l-174 -518h-279z" />
<glyph unicode="x" horiz-adv-x="1224" d="M18 0l312 416l110 145l-94 125l-301 399h342l139 -202l84 -123l84 123l140 202h342l-302 -399l-94 -125l111 -145l311 -416h-344l-133 184l-115 164l-114 -164l-134 -184h-344z" />
<glyph unicode="y" horiz-adv-x="1208" d="M18 1085h306l186 -471l94 -247l94 247l187 471h305l-432 -1011l-199 -484h-319l211 484z" />
<glyph unicode="z" horiz-adv-x="1142" d="M66 0v199l454 491l142 148l-189 -2h-371v249h951v-198l-455 -492l-141 -147l188 2h430v-250h-1009z" />
<glyph unicode="{" horiz-adv-x="659" d="M18 588v260h43q62 0 92.5 29.5t30.5 105.5v346q0 57 9 107t34.5 102t67 88.5t112.5 60t164 23.5h68v-266h-45q-62 0 -96.5 -30t-34.5 -103v-330q0 -79 -28.5 -149t-88.5 -115q60 -45 88.5 -114.5t28.5 -147.5v-332q0 -73 34.5 -103t96.5 -30h45v-266h-68q-93 0 -164 23.5 t-112.5 60t-67 88.5t-34.5 101.5t-9 106.5v349q0 75 -30.5 105t-92.5 30h-43z" />
<glyph unicode="|" horiz-adv-x="622" d="M168 -266v1966h287v-1966h-287z" />
<glyph unicode="}" horiz-adv-x="659" d="M23 -10h43q64 0 97.5 29.5t33.5 103.5v330q0 179 116 264q-116 85 -116 262v332q0 74 -33.5 103.5t-97.5 29.5h-43v266h67q93 0 163.5 -23.5t111.5 -60t66.5 -88.5t34.5 -102t9 -107v-348q0 -74 31 -104.5t92 -30.5h45v-260h-45q-61 0 -92 -30t-31 -105v-347 q0 -57 -9 -106.5t-34.5 -101.5t-66.5 -88.5t-111.5 -60t-163.5 -23.5h-67v266z" />
<glyph unicode="~" horiz-adv-x="1021" d="M57 645l103 164q2 -3 6 -8.5t18.5 -19.5t31 -24.5t42.5 -19t53 -8.5q32 0 62.5 17t59 41t61 48t81.5 41t107 17q56 0 105.5 -17.5t80 -42t53.5 -49t33 -42.5l9 -17l-103 -164q-2 3 -6 8.5t-18.5 19.5t-31 24.5t-42.5 19t-53 8.5q-32 0 -62.5 -17t-59 -41t-61 -48 t-81.5 -41t-107 -17q-56 0 -105.5 17.5t-80 42t-53.5 49t-33 42.5z" />
<glyph unicode="&#xa1;" horiz-adv-x="583" d="M131 -410l55 1026h209l56 -1026h-320zM137 778v307h307v-307h-307z" />
<glyph unicode="&#xa2;" horiz-adv-x="1173" d="M84 778q0 272 135 419.5t381 152.5l51 215h250l-59 -246q129 -40 191 -128t79 -216l-285 -37q-15 78 -63 115.5t-154 36.5q-117 -3 -180 -80t-63 -232t63 -231.5t180 -79.5q73 -1 119 17.5t67 50.5t31 83l285 -36q-9 -66 -27.5 -119t-56 -102t-91.5 -82t-136.5 -52.5 t-188.5 -19.5h-34l-50 -207h-249l63 266q-126 64 -192 193.5t-66 318.5z" />
<glyph unicode="&#xa3;" horiz-adv-x="1492" d="M88 0v262h217v418h-217v252h217v141q0 264 142.5 392t431.5 128q136 0 238.5 -30.5t165.5 -87t95 -130t37 -165.5l-285 -37q-18 199 -251 196q-159 -1 -227 -65t-68 -201v-141h467v-252h-467v-418h823v-262h-1319z" />
<glyph unicode="&#xa4;" horiz-adv-x="1589" d="M39 233l217 216q-82 139 -82 333q0 206 90 348l-211 209l195 195l221 -219q136 74 326 74q188 0 325 -76l221 221l195 -195l-211 -209q90 -142 90 -348q0 -192 -82 -333l217 -216l-194 -194l-219 219q-143 -82 -342 -82t-342 82l-220 -219zM461 782q0 -176 92.5 -260 t241.5 -84t241 84t92 260t-92 260t-241 84t-241.5 -84t-92.5 -260z" />
<glyph unicode="&#xa5;" horiz-adv-x="1564" d="M29 1563h325l320 -494l108 -172l109 172l319 494h326l-549 -809h338v-199h-401v-106h401v-199h-401v-264h-283v264h-401v199h401v106h-401v199h335z" />
<glyph unicode="&#xa6;" horiz-adv-x="622" d="M168 -266v884h287v-884h-287zM168 815v885h287v-885h-287z" />
<glyph unicode="&#xa7;" horiz-adv-x="1382" d="M80 582q0 119 55 208.5t148 141.5q-115 79 -115 256q0 90 30 164t82 124t122.5 84.5t149.5 50t165 15.5q536 0 581 -438l-288 -33q-15 114 -84.5 162.5t-208.5 48.5q-46 -1 -88 -10t-82 -28t-64 -56t-24 -86q0 -78 61.5 -112t212.5 -46q60 -6 102.5 -11t95 -14t90 -20 t79 -28.5t69.5 -39t55.5 -52t43.5 -67.5t25.5 -85t9.5 -105q0 -119 -55 -208.5t-148 -141.5q114 -79 114 -256q0 -112 -45.5 -198t-123.5 -137.5t-174 -77t-205 -25.5q-537 0 -582 438l289 33q15 -114 84.5 -162.5t208.5 -48.5q46 1 88 10t82 28t64 56t24 86q0 78 -62 112 t-213 46q-60 6 -102.5 11t-95 14t-89.5 20t-78.5 28.5t-69.5 39t-55.5 52t-43.5 67.5t-25.5 85t-9.5 105zM358 588q0 -99 72 -139t242 -54q59 -5 118 3.5t113 30.5t87.5 66t33.5 105q0 100 -70.5 139.5t-240.5 53.5q-59 5 -118 -3.5t-114 -30.5t-89 -66t-34 -105z" />
<glyph unicode="&#xa8;" horiz-adv-x="1228" d="M238 1264v307h307v-307h-307zM684 1264v307h307v-307h-307z" />
<glyph unicode="&#xa9;" horiz-adv-x="1843" d="M94 799q0 168 65.5 321.5t176.5 264t264.5 176t321.5 65.5t321.5 -65.5t264 -176t176 -264t65.5 -321.5t-65.5 -321.5t-176 -264.5t-264 -176.5t-321.5 -65.5t-321.5 65.5t-264.5 176.5t-176.5 264.5t-65.5 321.5zM406 799q0 -267 135.5 -410t380.5 -143q127 0 219 29.5 t146.5 85t83.5 120.5t42 150l-285 37q-21 -80 -65 -118.5t-141 -35.5q-112 3 -172 73.5t-60 211.5t60 211t172 73q97 3 141 -35t65 -118l285 37q-13 85 -42 150t-83.5 120.5t-146.5 85t-219 29.5q-245 0 -380.5 -143t-135.5 -410z" />
<glyph unicode="&#xaa;" horiz-adv-x="952" d="M70 1030q0 65 27 112.5t79 76.5t110 45.5t138 27.5l188 27v12q0 84 -139 84q-116 0 -133 -84l-236 29q7 46 20.5 82t40.5 71.5t65.5 58.5t99 37.5t139.5 14.5q373 0 373 -311v-293l16 -221h-215l-12 59q-45 -42 -112.5 -66t-141.5 -24q-159 0 -233 70t-74 192zM315 1036 q0 -29 20 -47t52 -18q80 0 138.5 36.5t86.5 100.5v43l-202 -33q-46 -7 -70.5 -29.5t-24.5 -52.5z" />
<glyph unicode="&#xab;" horiz-adv-x="1064" d="M86 547v196l426 291v-227l-182 -162l182 -162v-227zM537 547v196l426 291v-227l-183 -162l183 -162v-227z" />
<glyph unicode="&#xac;" d="M164 897v274h1106v-745h-275v471h-831z" />
<glyph unicode="&#xad;" horiz-adv-x="757" d="M92 557v262h574v-262h-574z" />
<glyph unicode="&#xae;" horiz-adv-x="1843" d="M94 799q0 168 65.5 321.5t176.5 264t264.5 176t321.5 65.5t321.5 -65.5t264 -176t176 -264t65.5 -321.5t-65.5 -321.5t-176 -264.5t-264 -176.5t-321.5 -65.5t-321.5 65.5t-264.5 176.5t-176.5 264.5t-65.5 321.5zM516 274h244v388h143l191 -388h297l-228 420 q178 70 178 299q0 330 -360 330h-465v-1049zM760 901v182h229q20 0 35.5 -3t32.5 -11t26 -27.5t9 -48.5q0 -30 -9 -49.5t-26 -28t-32.5 -11.5t-35.5 -3h-229z" />
<glyph unicode="&#xaf;" horiz-adv-x="1228" d="M299 1300v256h631v-256h-631z" />
<glyph unicode="&#xb0;" horiz-adv-x="999" d="M102 1217q0 184 110 280t288 96t287.5 -96t109.5 -280t-109.5 -280.5t-287.5 -96.5t-288 96.5t-110 280.5zM328 1217q0 -83 46 -124.5t126 -41.5t126 41.5t46 124.5t-46 124t-126 41t-126 -41t-46 -124z" />
<glyph unicode="&#xb1;" d="M164 242v274h1106v-274h-1106zM164 866v275h416v211h274v-211h416v-275h-416v-211h-274v211h-416z" />
<glyph unicode="&#xb2;" horiz-adv-x="903" d="M96 741q-2 71 5.5 129t20.5 101t37.5 78t49.5 58.5t63.5 44.5t73 34.5t84.5 30.5q11 4 29.5 10t27 9t22 8.5t20 8.5t15.5 8.5t13 10t8.5 11t6 13.5t1.5 15q0 40 -32.5 59t-77.5 19q-66 0 -102 -23.5t-42 -83.5l-223 18q20 293 363 293q149 0 241.5 -71.5t92.5 -204.5 q0 -39 -8.5 -71.5t-20.5 -55t-36.5 -43t-42.5 -32.5t-54.5 -25.5t-57.5 -20t-65 -18.5q-147 -40 -164 -105l145 4h322v-209h-715z" />
<glyph unicode="&#xb3;" horiz-adv-x="907" d="M82 1001l223 17q6 -53 41.5 -74.5t102.5 -21.5q147 0 147 88q0 45 -34 61t-97 16h-139v152h141q102 0 102 72q0 38 -29.5 59t-82.5 21q-65 -2 -97 -23t-38 -74l-224 17q9 145 96 213.5t257 68.5q70 0 129 -14t108 -44t77 -82t28 -122q0 -106 -78 -164q100 -49 100 -184 q0 -124 -95 -197t-280 -73q-337 0 -358 288z" />
<glyph unicode="&#xb4;" horiz-adv-x="1228" d="M473 1212l193 426h309l-227 -426h-275z" />
<glyph unicode="&#xb6;" horiz-adv-x="1370" d="M61 1100q0 116 32 204.5t83.5 143t124.5 89t147.5 47.5t159.5 13h606v-1597h-286v1331h-144v-1331h-143v600h-35q-86 0 -160 13t-147 48t-124 89.5t-82.5 144t-31.5 205.5z" />
<glyph unicode="&#xb7;" horiz-adv-x="520" d="M106 535v307h308v-307h-308z" />
<glyph unicode="&#xb8;" horiz-adv-x="1228" d="M369 -397l43 131q51 -27 106 -31q43 -4 76 8t33 45q0 35 -46.5 57.5t-123.5 30.5l61 179h203l-27 -95q185 -47 185 -178q0 -93 -78.5 -140.5t-206.5 -47.5q-134 0 -225 41z" />
<glyph unicode="&#xb9;" horiz-adv-x="880" d="M57 1202v215q106 23 189 69t131 107h172v-643h250v-209h-725v209h256v336q-40 -26 -114.5 -51t-158.5 -33z" />
<glyph unicode="&#xba;" horiz-adv-x="974" d="M82 1198q0 205 107 316.5t298 111.5t298.5 -111.5t107.5 -316.5t-107.5 -316.5t-298.5 -111.5t-298 111.5t-107 316.5zM309 1198q0 -209 178 -209q179 0 179 209t-179 209q-178 0 -178 -209z" />
<glyph unicode="&#xbb;" horiz-adv-x="1064" d="M102 256v227l183 162l-183 162v227l426 -291v-196zM553 256v227l182 162l-182 162v227l426 -291v-196z" />
<glyph unicode="&#xbc;" horiz-adv-x="2142" d="M57 1202v215q106 23 189 69t131 107h172v-643h250v-209h-725v209h256v336q-40 -26 -114.5 -51t-158.5 -33zM453 0l1065 1565h290l-1067 -1565h-288zM1319 143v160l414 549h194v-500h139v-209h-139v-143h-219v143h-389zM1583 352h125v180z" />
<glyph unicode="&#xbd;" horiz-adv-x="2240" d="M57 1202v215q106 23 189 69t131 107h172v-643h250v-209h-725v209h256v336q-40 -26 -114.5 -51t-158.5 -33zM453 0l1065 1565h290l-1067 -1565h-288zM1434 0q-2 99 13 173t40 120.5t72.5 82.5t91.5 55.5t116 43.5q11 4 29.5 10t27 9t22.5 8.5t20 8.5t15.5 8.5t13.5 10 t8.5 10.5t6 13.5t1.5 15.5q0 40 -33 59t-78 19q-66 0 -101.5 -23t-41.5 -83l-223 18q20 293 362 293q148 0 241 -72t93 -205q0 -39 -8.5 -71.5t-20.5 -55t-36.5 -43t-42.5 -32.5t-54.5 -25.5t-57.5 -20t-65 -18.5q-148 -40 -164 -104l146 4h321v-209h-714z" />
<glyph unicode="&#xbe;" horiz-adv-x="2136" d="M82 1001l223 17q6 -53 41.5 -74.5t102.5 -21.5q147 0 147 88q0 45 -34 61t-97 16h-139v152h141q102 0 102 72q0 38 -29.5 59t-82.5 21q-65 -2 -97 -23t-38 -74l-224 17q9 145 96 213.5t257 68.5q70 0 129 -14t108 -44t77 -82t28 -122q0 -106 -78 -164q100 -49 100 -184 q0 -124 -95 -197t-280 -73q-337 0 -358 288zM446 0l1065 1565h291l-1067 -1565h-289zM1313 143v160l413 549h195v-500h139v-209h-139v-143h-219v143h-389zM1577 352h125v180z" />
<glyph unicode="&#xbf;" horiz-adv-x="1177" d="M61 -16q0 47 7.5 88.5t18.5 74t31 61.5t37.5 49.5t46 41t49 32.5t54 26.5t52.5 22t53 19.5q6 2 23 8.5t23.5 9t20.5 8.5t20 10t16 10.5t14.5 13.5t10 15.5t7.5 19t2 22.5q0 42 -17 100h222q51 -105 51 -172q0 -68 -18.5 -115.5t-61.5 -78t-75 -44.5t-99 -36q-8 -3 -12 -4 q-35 -12 -50.5 -18t-47 -22t-46.5 -31.5t-28 -41.5t-13 -57q0 -168 230 -168q128 0 191.5 51t78.5 178l287 -28q-21 -226 -154 -346.5t-403 -120.5q-238 0 -379.5 109t-141.5 313zM469 778v307h307v-307h-307z" />
<glyph unicode="&#xc0;" horiz-adv-x="1519" d="M16 0l617 1626h254l616 -1626h-309l-137 381h-594l-137 -381h-310zM383 2109h309l193 -426h-275zM553 641h414l-207 614z" />
<glyph unicode="&#xc1;" horiz-adv-x="1519" d="M16 0l617 1626h254l616 -1626h-309l-137 381h-594l-137 -381h-310zM553 641h414l-207 614zM635 1683l192 426h310l-228 -426h-274z" />
<glyph unicode="&#xc2;" horiz-adv-x="1519" d="M16 0l617 1626h254l616 -1626h-309l-137 381h-594l-137 -381h-310zM317 1683l318 426h250l317 -426h-282l-160 193l-160 -193h-283zM553 641h414l-207 614z" />
<glyph unicode="&#xc3;" horiz-adv-x="1519" d="M16 0l617 1626h254l616 -1626h-309l-137 381h-594l-137 -381h-310zM254 1741q14 182 98 273.5t242 88.5q55 -1 101 -17t76 -38.5t55 -45t51.5 -38t52.5 -16.5q32 -1 54 10t33 33.5t15.5 41.5t7.5 46l224 -27q-14 -182 -98 -273.5t-242 -88.5q-55 1 -101 17t-76 38.5 t-55 45t-51.5 38t-52.5 16.5q-32 1 -54 -10t-33.5 -33.5t-16 -41.5t-7.5 -46zM553 641h414l-207 614z" />
<glyph unicode="&#xc4;" horiz-adv-x="1519" d="M16 0l617 1626h254l616 -1626h-309l-137 381h-594l-137 -381h-310zM383 1735v307h307v-307h-307zM553 641h414l-207 614zM829 1735v307h308v-307h-308z" />
<glyph unicode="&#xc5;" horiz-adv-x="1519" d="M16 0l617 1626h254l616 -1626h-309l-137 381h-594l-137 -381h-310zM518 1896q0 107 65 174.5t177 67.5t176.5 -67.5t64.5 -174.5t-64.5 -174t-176.5 -67t-177 67t-65 174zM553 641h414l-207 614zM688 1896q0 -34 19 -52.5t53 -18.5t52.5 18.5t18.5 52.5t-18.5 53 t-52.5 19t-53 -19t-19 -53z" />
<glyph unicode="&#xc6;" horiz-adv-x="2236" d="M10 0l858 1597h1205v-266h-834l59 -381h672v-266h-631l66 -418h709v-266h-961l-57 362h-576l-182 -362h-328zM643 604h416l-72 471l-22 166z" />
<glyph unicode="&#xc7;" horiz-adv-x="1536" d="M127 799q0 191 38.5 340t118.5 259.5t213 169t314 58.5q296 0 448.5 -132.5t178.5 -373.5l-289 -30q-22 144 -100 207t-238 63q-95 0 -166 -30.5t-113.5 -80.5t-68 -125t-34.5 -151.5t-9 -173.5t9 -173.5t34.5 -151.5t68 -125t113.5 -80.5t166 -30.5q160 0 238 63 t100 207l289 -31q-51 -461 -535 -502l-12 -47q184 -47 184 -178q0 -93 -78 -140.5t-206 -47.5q-135 0 -226 41l43 131q52 -27 107 -31q108 0 108 53q0 35 -46.5 57.5t-123.5 30.5l45 133q-151 17 -262 83t-178 174.5t-99 248.5t-32 316z" />
<glyph unicode="&#xc8;" horiz-adv-x="1449" d="M156 0v1597h1132v-266h-846v-381h750v-266h-750v-418h885v-266h-1171zM367 2109h309l192 -426h-274z" />
<glyph unicode="&#xc9;" horiz-adv-x="1449" d="M156 0v1597h1132v-266h-846v-381h750v-266h-750v-418h885v-266h-1171zM580 1683l192 426h309l-227 -426h-274z" />
<glyph unicode="&#xca;" horiz-adv-x="1449" d="M156 0v1597h1132v-266h-846v-381h750v-266h-750v-418h885v-266h-1171zM279 1683l317 426h250l317 -426h-282l-160 193l-160 -193h-282z" />
<glyph unicode="&#xcb;" horiz-adv-x="1449" d="M156 0v1597h1132v-266h-846v-381h750v-266h-750v-418h885v-266h-1171zM344 1735v307h307v-307h-307zM791 1735v307h307v-307h-307z" />
<glyph unicode="&#xcc;" horiz-adv-x="655" d="M-43 2109h309l193 -426h-275zM184 0v1597h287v-1597h-287z" />
<glyph unicode="&#xcd;" horiz-adv-x="655" d="M184 0v1597h287v-1597h-287zM197 1683l192 426h309l-227 -426h-274z" />
<glyph unicode="&#xce;" horiz-adv-x="655" d="M-115 1683l318 426h250l317 -426h-283l-159 193l-160 -193h-283zM184 0v1597h287v-1597h-287z" />
<glyph unicode="&#xcf;" horiz-adv-x="655" d="M-49 1735v307h307v-307h-307zM184 0v1597h287v-1597h-287zM397 1735v307h308v-307h-308z" />
<glyph unicode="&#xd0;" horiz-adv-x="1638" d="M-4 713v213h219v671h565q370 0 556 -195t186 -603t-186 -603.5t-556 -195.5h-565v713h-219zM502 266h278q122 0 210 37t139.5 108t75.5 166.5t24 221.5q0 100 -14.5 180.5t-48 147t-85 111t-127.5 69t-174 24.5h-278v-405h379v-213h-379v-447z" />
<glyph unicode="&#xd1;" horiz-adv-x="1566" d="M156 0v1597h264l551 -823l157 -246l-4 383v686h287v-1597h-264l-551 823l-158 246l4 -383v-686h-286zM276 1741q14 182 98 273.5t242 88.5q55 -1 101 -17t76 -38.5t55 -45t51.5 -38t52.5 -16.5q32 -1 54 10t33.5 33.5t16 41.5t7.5 46l223 -27q-14 -182 -98 -273.5 t-242 -88.5q-55 1 -101 17t-76 38.5t-55 45t-51.5 38t-52.5 16.5q-32 1 -54 -10t-33 -33.5t-15.5 -41.5t-7.5 -46z" />
<glyph unicode="&#xd2;" horiz-adv-x="1658" d="M113 799q0 193 41.5 342.5t126.5 259.5t223.5 167.5t324.5 57.5t324.5 -58t224 -167.5t127 -259t41.5 -342.5t-41.5 -343t-127 -259.5t-224 -167.5t-324.5 -58t-324.5 58t-223.5 167.5t-126.5 259.5t-41.5 343zM403 799q0 -96 11 -175t40.5 -152.5t76.5 -123.5t122.5 -80 t175.5 -30t175.5 30t122 79.5t75.5 123.5t40 152.5t11 175.5t-11 175.5t-40 152.5t-75.5 123.5t-122 79.5t-175.5 30t-175.5 -30t-122.5 -80t-76.5 -123.5t-40.5 -152.5t-11 -175zM475 2109h309l193 -426h-275z" />
<glyph unicode="&#xd3;" horiz-adv-x="1658" d="M113 799q0 193 41.5 342.5t126.5 259.5t223.5 167.5t324.5 57.5t324.5 -58t224 -167.5t127 -259t41.5 -342.5t-41.5 -343t-127 -259.5t-224 -167.5t-324.5 -58t-324.5 58t-223.5 167.5t-126.5 259.5t-41.5 343zM403 799q0 -96 11 -175t40.5 -152.5t76.5 -123.5t122.5 -80 t175.5 -30t175.5 30t122 79.5t75.5 123.5t40 152.5t11 175.5t-11 175.5t-40 152.5t-75.5 123.5t-122 79.5t-175.5 30t-175.5 -30t-122.5 -80t-76.5 -123.5t-40.5 -152.5t-11 -175zM688 1683l193 426h309l-227 -426h-275z" />
<glyph unicode="&#xd4;" horiz-adv-x="1658" d="M113 799q0 193 41.5 342.5t126.5 259.5t223.5 167.5t324.5 57.5t324.5 -58t224 -167.5t127 -259t41.5 -342.5t-41.5 -343t-127 -259.5t-224 -167.5t-324.5 -58t-324.5 58t-223.5 167.5t-126.5 259.5t-41.5 343zM387 1683l318 426h249l318 -426h-283l-160 193l-159 -193 h-283zM403 799q0 -96 11 -175t40.5 -152.5t76.5 -123.5t122.5 -80t175.5 -30t175.5 30t122 79.5t75.5 123.5t40 152.5t11 175.5t-11 175.5t-40 152.5t-75.5 123.5t-122 79.5t-175.5 30t-175.5 -30t-122.5 -80t-76.5 -123.5t-40.5 -152.5t-11 -175z" />
<glyph unicode="&#xd5;" horiz-adv-x="1658" d="M113 799q0 193 41.5 342.5t126.5 259.5t223.5 167.5t324.5 57.5t324.5 -58t224 -167.5t127 -259t41.5 -342.5t-41.5 -343t-127 -259.5t-224 -167.5t-324.5 -58t-324.5 58t-223.5 167.5t-126.5 259.5t-41.5 343zM324 1741q14 182 98 273.5t242 88.5q55 -1 101 -17 t75.5 -38.5t54.5 -45t51.5 -38t52.5 -16.5q32 -1 54 10t33.5 33.5t16 41.5t7.5 46l223 -27q-14 -182 -98 -273.5t-242 -88.5q-55 1 -101 17t-76 38.5t-55 45t-51.5 38t-52.5 16.5q-32 1 -54 -10t-33 -33.5t-15.5 -41.5t-7.5 -46zM403 799q0 -96 11 -175t40.5 -152.5 t76.5 -123.5t122.5 -80t175.5 -30t175.5 30t122 79.5t75.5 123.5t40 152.5t11 175.5t-11 175.5t-40 152.5t-75.5 123.5t-122 79.5t-175.5 30t-175.5 -30t-122.5 -80t-76.5 -123.5t-40.5 -152.5t-11 -175z" />
<glyph unicode="&#xd6;" horiz-adv-x="1556" d="M113 799q0 193 41.5 342.5t126.5 259.5t223.5 167.5t324.5 57.5t324.5 -58t224 -167.5t127 -259t41.5 -342.5t-41.5 -343t-127 -259.5t-224 -167.5t-324.5 -58t-324.5 58t-223.5 167.5t-126.5 259.5t-41.5 343zM403 799q0 -96 11 -175t40.5 -152.5t76.5 -123.5t122.5 -80 t175.5 -30t175.5 30t122 79.5t75.5 123.5t40 152.5t11 175.5t-11 175.5t-40 152.5t-75.5 123.5t-122 79.5t-175.5 30t-175.5 -30t-122.5 -80t-76.5 -123.5t-40.5 -152.5t-11 -175zM453 1735v307h307v-307h-307zM899 1735v307h307v-307h-307z" />
<glyph unicode="&#xd7;" d="M174 451l348 348l-348 348l195 194l348 -348l348 348l195 -194l-349 -348l349 -348l-195 -195l-348 348l-348 -348z" />
<glyph unicode="&#xd8;" horiz-adv-x="1658" d="M113 799q0 193 41.5 342.5t126.5 259.5t223.5 167.5t324.5 57.5q231 0 390 -92l43 63h215l-119 -174q188 -211 188 -624q0 -193 -41.5 -343t-127 -259.5t-224 -167.5t-324.5 -58q-230 0 -389 92l-43 -63h-215l119 174q-188 211 -188 625zM403 799q0 -240 70 -369l588 873 q-91 57 -232 57q-100 0 -175.5 -30t-122.5 -80t-76.5 -123.5t-40.5 -152.5t-11 -175zM598 295q91 -57 231 -57q100 0 175.5 30t122.5 80t76.5 123.5t40.5 152.5t11 175q0 240 -69 368z" />
<glyph unicode="&#xd9;" horiz-adv-x="1581" d="M139 584v1013h287v-1013q0 -63 8.5 -111.5t33 -94t64 -75.5t105 -47.5t154.5 -17.5t154 18t105 47.5t64 75t32.5 94t8.5 111.5v1013h287v-1013q0 -109 -19.5 -198t-66.5 -167.5t-120.5 -132t-186 -84.5t-258.5 -31t-258.5 31t-186 84.5t-121 132t-67 167.5t-19.5 198z M436 2109h309l193 -426h-274z" />
<glyph unicode="&#xda;" horiz-adv-x="1581" d="M139 584v1013h287v-1013q0 -63 8.5 -111.5t33 -94t64 -75.5t105 -47.5t154.5 -17.5t154 18t105 47.5t64 75t32.5 94t8.5 111.5v1013h287v-1013q0 -109 -19.5 -198t-66.5 -167.5t-120.5 -132t-186 -84.5t-258.5 -31t-258.5 31t-186 84.5t-121 132t-67 167.5t-19.5 198z M649 1683l193 426h309l-227 -426h-275z" />
<glyph unicode="&#xdb;" horiz-adv-x="1581" d="M139 584v1013h287v-1013q0 -63 8.5 -111.5t33 -94t64 -75.5t105 -47.5t154.5 -17.5t154 18t105 47.5t64 75t32.5 94t8.5 111.5v1013h287v-1013q0 -109 -19.5 -198t-66.5 -167.5t-120.5 -132t-186 -84.5t-258.5 -31t-258.5 31t-186 84.5t-121 132t-67 167.5t-19.5 198z M348 1683l318 426h249l318 -426h-283l-159 193l-160 -193h-283z" />
<glyph unicode="&#xdc;" horiz-adv-x="1581" d="M139 584v1013h287v-1013q0 -63 8.5 -111.5t33 -94t64 -75.5t105 -47.5t154.5 -17.5t154 18t105 47.5t64 75t32.5 94t8.5 111.5v1013h287v-1013q0 -109 -19.5 -198t-66.5 -167.5t-120.5 -132t-186 -84.5t-258.5 -31t-258.5 31t-186 84.5t-121 132t-67 167.5t-19.5 198z M414 1735v307h307v-307h-307zM860 1735v307h307v-307h-307z" />
<glyph unicode="&#xdd;" horiz-adv-x="1474" d="M-25 1597h330l303 -475l129 -207l129 207l303 475h330l-618 -935v-662h-287v662zM596 1683l192 426h310l-228 -426h-274z" />
<glyph unicode="&#xde;" horiz-adv-x="1380" d="M156 0v1597h286v-299h322q86 0 160 -13t147 -47.5t124 -89t82.5 -144t31.5 -205.5t-31.5 -205.5t-82.5 -144t-124 -89.5t-147 -48t-160 -13h-322v-299h-286zM442 567h342q230 0 230 232q0 58 -15 101.5t-37.5 67.5t-55 38.5t-60.5 19t-62 4.5h-342v-463z" />
<glyph unicode="&#xdf;" horiz-adv-x="1415" d="M141 0v1067q0 304 139 447t445 143q107 0 201 -25.5t167 -74t115.5 -124.5t42.5 -171q0 -41 -6.5 -77.5t-14.5 -64.5t-25 -53.5t-29 -42t-36 -34.5t-36.5 -26.5t-39 -21t-35 -16t-34.5 -13.5q-87 -35 -110 -52q-40 -31 -41 -79q0 -17 10.5 -31.5t24.5 -24t40 -18.5 t45 -13.5t51 -12.5l48 -12q29 -8 44.5 -12.5t47 -15.5t50.5 -23t45.5 -30.5t43.5 -42t33 -53.5t23.5 -69.5t7.5 -85.5q0 -91 -32 -162.5t-88.5 -115.5t-131 -66.5t-162.5 -22.5q-119 0 -202.5 26t-130.5 77.5t-69.5 113.5t-29.5 148l276 35q14 -145 152 -148q135 0 135 113 q0 56 -44.5 82t-149.5 49q-46 10 -79.5 19.5t-82 33t-79 54t-53 82.5t-22.5 118q0 36 5.5 68.5t13.5 58t23.5 49t27 39t33 32.5t34 26t37 20.5t34 16t33.5 13.5t28 11q77 31 107 61.5t30 87.5q0 70 -61 109t-185 39q-75 0 -130.5 -18t-89 -48.5t-53.5 -77t-27 -95t-7 -111.5 v-1055h-277z" />
<glyph unicode="&#xe0;" horiz-adv-x="1228" d="M90 309q0 89 27 151t83 100t124 59.5t168 35.5l331 47v23q0 145 -209 145q-104 1 -148.5 -33t-55.5 -106l-285 37q13 79 40.5 137.5t80.5 108t143.5 75t216.5 25.5q238 0 367 -102.5t129 -309.5v-409l18 -293h-256l-22 115q-129 -144 -353 -144q-207 0 -303 90.5 t-96 247.5zM252 1638h309l193 -426h-275zM385 322q0 -54 36 -82.5t103 -30.5q112 -4 193.5 57t105.5 140v88l-288 -48q-83 -14 -116.5 -41.5t-33.5 -82.5z" />
<glyph unicode="&#xe1;" horiz-adv-x="1228" d="M90 309q0 89 27 151t83 100t124 59.5t168 35.5l331 47v23q0 145 -209 145q-104 1 -148.5 -33t-55.5 -106l-285 37q13 79 40.5 137.5t80.5 108t143.5 75t216.5 25.5q238 0 367 -102.5t129 -309.5v-409l18 -293h-256l-22 115q-129 -144 -353 -144q-207 0 -303 90.5 t-96 247.5zM385 322q0 -54 36 -82.5t103 -30.5q112 -4 193.5 57t105.5 140v88l-288 -48q-83 -14 -116.5 -41.5t-33.5 -82.5zM465 1212l192 426h310l-228 -426h-274z" />
<glyph unicode="&#xe2;" horiz-adv-x="1228" d="M90 309q0 89 27 151t83 100t124 59.5t168 35.5l331 47v23q0 145 -209 145q-104 1 -148.5 -33t-55.5 -106l-285 37q13 79 40.5 137.5t80.5 108t143.5 75t216.5 25.5q238 0 367 -102.5t129 -309.5v-409l18 -293h-256l-22 115q-129 -144 -353 -144q-207 0 -303 90.5 t-96 247.5zM164 1212l317 426h250l318 -426h-283l-160 193l-160 -193h-282zM385 322q0 -54 36 -82.5t103 -30.5q112 -4 193.5 57t105.5 140v88l-288 -48q-83 -14 -116.5 -41.5t-33.5 -82.5z" />
<glyph unicode="&#xe3;" horiz-adv-x="1228" d="M90 309q0 89 27 151t83 100t124 59.5t168 35.5l331 47v23q0 145 -209 145q-104 1 -148.5 -33t-55.5 -106l-285 37q13 79 40.5 137.5t80.5 108t143.5 75t216.5 25.5q238 0 367 -102.5t129 -309.5v-409l18 -293h-256l-22 115q-129 -144 -353 -144q-207 0 -303 90.5 t-96 247.5zM100 1270q14 182 98 273.5t242 88.5q55 -1 101 -17t76 -38.5t55 -45t51.5 -38t52.5 -16.5q32 -1 54 10t33.5 33.5t16 41.5t7.5 46l223 -27q-14 -182 -98 -273.5t-242 -88.5q-55 1 -101 17t-76 38.5t-55 45t-51.5 38t-52.5 16.5q-32 1 -54 -10t-33 -33.5 t-15.5 -41.5t-7.5 -46zM385 322q0 -54 36 -82.5t103 -30.5q112 -4 193.5 57t105.5 140v88l-288 -48q-83 -14 -116.5 -41.5t-33.5 -82.5z" />
<glyph unicode="&#xe4;" horiz-adv-x="1228" d="M90 309q0 89 27 151t83 100t124 59.5t168 35.5l331 47v23q0 145 -209 145q-104 1 -148.5 -33t-55.5 -106l-285 37q13 79 40.5 137.5t80.5 108t143.5 75t216.5 25.5q238 0 367 -102.5t129 -309.5v-409l18 -293h-256l-22 115q-129 -144 -353 -144q-207 0 -303 90.5 t-96 247.5zM229 1264v307h308v-307h-308zM385 322q0 -54 36 -82.5t103 -30.5q112 -4 193.5 57t105.5 140v88l-288 -48q-83 -14 -116.5 -41.5t-33.5 -82.5zM676 1264v307h307v-307h-307z" />
<glyph unicode="&#xe5;" horiz-adv-x="1228" d="M90 309q0 89 27 151t83 100t124 59.5t168 35.5l331 47v23q0 145 -209 145q-104 1 -148.5 -33t-55.5 -106l-285 37q13 79 40.5 137.5t80.5 108t143.5 75t216.5 25.5q238 0 367 -102.5t129 -309.5v-409l18 -293h-256l-22 115q-129 -144 -353 -144q-207 0 -303 90.5 t-96 247.5zM365 1425q0 107 64.5 174.5t176.5 67.5t177 -67.5t65 -174.5t-65 -174t-177 -67t-176.5 67t-64.5 174zM385 322q0 -54 36 -82.5t103 -30.5q112 -4 193.5 57t105.5 140v88l-288 -48q-83 -14 -116.5 -41.5t-33.5 -82.5zM535 1425q0 -34 18.5 -52.5t52.5 -18.5 t53 18.5t19 52.5t-19 53t-53 19t-52.5 -19t-18.5 -53z" />
<glyph unicode="&#xe6;" horiz-adv-x="1959" d="M90 307q0 175 126.5 261.5t338.5 86.5h268v62q0 79 -52 116t-159 37q-100 3 -144.5 -32.5t-59.5 -106.5l-283 37q12 78 39 136.5t80 108t144 75.5t218 26q257 0 371 -133q139 133 379 133q252 0 384 -147t132 -424v-107h-756q6 -111 72.5 -166t175.5 -55q189 -3 217 129 l285 -35q-54 -338 -496 -338q-276 0 -420 162q-82 -86 -194 -124t-262 -38q-210 0 -307 89t-97 247zM385 322q0 -110 133 -113q123 -4 207.5 57t97.5 135v35h-274q-80 0 -122 -26t-42 -88zM1118 655h455q-9 215 -215 215q-105 0 -167.5 -53t-72.5 -162z" />
<glyph unicode="&#xe7;" horiz-adv-x="1179" d="M84 543q0 275 138.5 423t389.5 148q106 0 188.5 -19.5t136.5 -52.5t91.5 -82t56 -102t27.5 -119l-285 -37q-15 78 -63 115.5t-154 36.5q-117 -3 -180 -79.5t-63 -231.5t63 -232t180 -80q106 -1 154 36.5t63 115.5l285 -37q-8 -60 -24 -109t-47.5 -95.5t-75.5 -79.5 t-111 -56.5t-152 -30.5l-12 -45q184 -47 184 -178q0 -93 -78 -140.5t-206 -47.5q-134 0 -225 41l43 131q51 -27 106 -31q109 0 109 53q0 35 -46.5 57.5t-123.5 30.5l45 134q-198 31 -306 175.5t-108 387.5z" />
<glyph unicode="&#xe8;" horiz-adv-x="1222" d="M84 543q0 275 141 423t393 148t384.5 -147t132.5 -424v-107h-756q6 -111 72.5 -166t175.5 -55q189 -3 217 129l284 -35q-54 -338 -495 -338q-261 0 -405 148t-144 424zM264 1638h309l193 -426h-274zM381 655h455q-9 215 -215 215q-105 0 -167.5 -53t-72.5 -162z" />
<glyph unicode="&#xe9;" horiz-adv-x="1222" d="M84 543q0 275 141 423t393 148t384.5 -147t132.5 -424v-107h-756q6 -111 72.5 -166t175.5 -55q189 -3 217 129l284 -35q-54 -338 -495 -338q-261 0 -405 148t-144 424zM381 655h455q-9 215 -215 215q-105 0 -167.5 -53t-72.5 -162zM477 1212l193 426h309l-227 -426h-275z " />
<glyph unicode="&#xea;" horiz-adv-x="1222" d="M84 543q0 275 141 423t393 148t384.5 -147t132.5 -424v-107h-756q6 -111 72.5 -166t175.5 -55q189 -3 217 129l284 -35q-54 -338 -495 -338q-261 0 -405 148t-144 424zM176 1212l318 426h249l318 -426h-283l-160 193l-159 -193h-283zM381 655h455q-9 215 -215 215 q-105 0 -167.5 -53t-72.5 -162z" />
<glyph unicode="&#xeb;" horiz-adv-x="1222" d="M84 543q0 275 141 423t393 148t384.5 -147t132.5 -424v-107h-756q6 -111 72.5 -166t175.5 -55q189 -3 217 129l284 -35q-54 -338 -495 -338q-261 0 -405 148t-144 424zM242 1264v307h307v-307h-307zM381 655h455q-9 215 -215 215q-105 0 -167.5 -53t-72.5 -162zM688 1264 v307h307v-307h-307z" />
<glyph unicode="&#xec;" horiz-adv-x="569" d="M-82 1638h309l193 -426h-275zM145 0v1085h279v-1085h-279z" />
<glyph unicode="&#xed;" horiz-adv-x="569" d="M145 0v1085h279v-1085h-279zM150 1212l192 426h309l-227 -426h-274z" />
<glyph unicode="&#xee;" horiz-adv-x="569" d="M-158 1212l318 426h250l317 -426h-283l-159 193l-160 -193h-283zM145 0v1085h279v-1085h-279z" />
<glyph unicode="&#xef;" horiz-adv-x="569" d="M-92 1264v307h307v-307h-307zM145 0v1085h279v-1085h-279zM354 1264v307h308v-307h-308z" />
<glyph unicode="&#xf0;" horiz-adv-x="1232" d="M84 543q0 277 139 423t389 146q99 0 166 -39q-45 117 -133 219l-379 -141v190l240 89q-59 46 -138.5 90.5t-117 62t-123.5 55.5h444q109 -57 187 -116l266 98v-186l-129 -50q252 -302 252 -841q0 -278 -140.5 -424t-390.5 -146t-391 146t-141 424zM367 543 q0 -312 249 -312q248 0 248 312q0 309 -248 309q-121 0 -185 -73t-64 -236z" />
<glyph unicode="&#xf1;" horiz-adv-x="1257" d="M113 1085h256l22 -124q54 67 149 110t189 43q195 0 307.5 -96.5t112.5 -286.5v-731h-279v690q0 82 -50 122t-140 40q-99 0 -174.5 -55.5t-97.5 -124.5v-672h-277v793zM133 1270q14 182 98 273.5t242 88.5q55 -1 101 -17t76 -38.5t55 -45t51.5 -38t52.5 -16.5q32 -1 54 10 t33.5 33.5t16 41.5t7.5 46l223 -27q-14 -182 -98 -273.5t-242 -88.5q-55 1 -101 17t-76 38.5t-55 45t-51.5 38t-52.5 16.5q-32 1 -54 -10t-33.5 -33.5t-16 -41.5t-7.5 -46z" />
<glyph unicode="&#xf2;" horiz-adv-x="1232" d="M84 543q0 278 141 424.5t391 146.5t391.5 -146.5t141.5 -424.5t-141.5 -425t-391.5 -147t-391 147t-141 425zM262 1638h309l193 -426h-275zM371 543q0 -312 245 -312q246 0 246 312q0 311 -246 311q-245 0 -245 -311z" />
<glyph unicode="&#xf3;" horiz-adv-x="1232" d="M84 543q0 278 141 424.5t391 146.5t391.5 -146.5t141.5 -424.5t-141.5 -425t-391.5 -147t-391 147t-141 425zM371 543q0 -312 245 -312q246 0 246 312q0 311 -246 311q-245 0 -245 -311zM475 1212l193 426h309l-227 -426h-275z" />
<glyph unicode="&#xf4;" horiz-adv-x="1232" d="M84 543q0 278 141 424.5t391 146.5t391.5 -146.5t141.5 -424.5t-141.5 -425t-391.5 -147t-391 147t-141 425zM174 1212l318 426h249l318 -426h-283l-160 193l-159 -193h-283zM371 543q0 -312 245 -312q246 0 246 312q0 311 -246 311q-245 0 -245 -311z" />
<glyph unicode="&#xf5;" horiz-adv-x="1232" d="M84 543q0 278 141 424.5t391 146.5t391.5 -146.5t141.5 -424.5t-141.5 -425t-391.5 -147t-391 147t-141 425zM111 1270q14 182 98 273.5t242 88.5q55 -1 101 -17t75.5 -38.5t54.5 -45t51.5 -38t52.5 -16.5q32 -1 54 10t33.5 33.5t16 41.5t7.5 46l223 -27 q-14 -182 -98 -273.5t-242 -88.5q-55 1 -101 17t-76 38.5t-55 45t-51.5 38t-52.5 16.5q-32 1 -54 -10t-33 -33.5t-15.5 -41.5t-7.5 -46zM371 543q0 -312 245 -312q246 0 246 312q0 311 -246 311q-245 0 -245 -311z" />
<glyph unicode="&#xf6;" horiz-adv-x="1232" d="M84 543q0 278 141 424.5t391 146.5t391.5 -146.5t141.5 -424.5t-141.5 -425t-391.5 -147t-391 147t-141 425zM240 1264v307h307v-307h-307zM371 543q0 -312 245 -312q246 0 246 312q0 311 -246 311q-245 0 -245 -311zM686 1264v307h307v-307h-307z" />
<glyph unicode="&#xf7;" d="M164 662v274h1106v-274h-1106zM563 246v307h307v-307h-307zM563 1044v308h307v-308h-307z" />
<glyph unicode="&#xf8;" horiz-adv-x="1232" d="M84 543q0 278 141 424.5t391 146.5q146 0 258 -53l17 24h203l-84 -120q139 -152 139 -422q0 -278 -141.5 -425t-391.5 -147q-144 0 -258 54l-16 -25h-203l84 121q-139 152 -139 422zM371 543q0 -97 26 -170l322 465q-46 16 -103 16q-245 0 -245 -311zM514 248 q49 -17 102 -17q246 0 246 312q0 97 -26 170z" />
<glyph unicode="&#xf9;" horiz-adv-x="1257" d="M109 354v731h278v-690q0 -82 50.5 -122t140.5 -40q99 0 174.5 55.5t97.5 125.5v671h276v-792l19 -293h-256l-23 125q-55 -67 -149.5 -110.5t-188.5 -43.5q-195 0 -307 96.5t-112 286.5zM264 1638h309l193 -426h-274z" />
<glyph unicode="&#xfa;" horiz-adv-x="1257" d="M109 354v731h278v-690q0 -82 50.5 -122t140.5 -40q99 0 174.5 55.5t97.5 125.5v671h276v-792l19 -293h-256l-23 125q-55 -67 -149.5 -110.5t-188.5 -43.5q-195 0 -307 96.5t-112 286.5zM477 1212l193 426h309l-227 -426h-275z" />
<glyph unicode="&#xfb;" horiz-adv-x="1257" d="M109 354v731h278v-690q0 -82 50.5 -122t140.5 -40q99 0 174.5 55.5t97.5 125.5v671h276v-792l19 -293h-256l-23 125q-55 -67 -149.5 -110.5t-188.5 -43.5q-195 0 -307 96.5t-112 286.5zM176 1212l318 426h249l318 -426h-283l-160 193l-159 -193h-283z" />
<glyph unicode="&#xfc;" horiz-adv-x="1257" d="M109 354v731h278v-690q0 -82 50.5 -122t140.5 -40q99 0 174.5 55.5t97.5 125.5v671h276v-792l19 -293h-256l-23 125q-55 -67 -149.5 -110.5t-188.5 -43.5q-195 0 -307 96.5t-112 286.5zM242 1264v307h307v-307h-307zM688 1264v307h307v-307h-307z" />
<glyph unicode="&#xfd;" horiz-adv-x="1208" d="M18 1085h306l186 -471l94 -247l94 247l187 471h305l-432 -1011l-199 -484h-319l211 484zM463 1212l192 426h310l-228 -426h-274z" />
<glyph unicode="&#xfe;" horiz-adv-x="1282" d="M131 -410v2048h279v-649q47 54 131 89.5t174 35.5q241 0 369 -147t128 -424t-128 -424.5t-369 -147.5q-90 0 -174 35.5t-131 89.5v-506h-279zM410 416q16 -73 87.5 -128t172.5 -55q112 0 182 79.5t70 230.5t-70 230t-182 79q-102 0 -173 -54.5t-87 -127.5v-254z" />
<glyph unicode="&#xff;" horiz-adv-x="1208" d="M18 1085h306l186 -471l94 -247l94 247l187 471h305l-432 -1011l-199 -484h-319l211 484zM227 1264v307h308v-307h-308zM674 1264v307h307v-307h-307z" />
<glyph unicode="&#x152;" horiz-adv-x="2287" d="M117 799q0 408 185.5 603t555.5 195h1268v-266h-785v-381h689v-266h-689v-418h824v-266h-1307q-370 0 -555.5 195.5t-185.5 603.5zM410 799q0 -126 23.5 -221.5t75.5 -166.5t139.5 -108t209.5 -37h197v1065h-197q-122 0 -209.5 -36.5t-139.5 -107.5t-75.5 -166.5 t-23.5 -221.5z" />
<glyph unicode="&#x153;" horiz-adv-x="2000" d="M84 543q0 278 141 424.5t391 146.5q251 0 390 -145q142 145 391 145q252 0 384 -147t132 -424v-107h-756q6 -111 72.5 -166t175.5 -55q189 -3 217 129l285 -35q-54 -338 -496 -338q-262 0 -405 146q-140 -146 -390 -146t-391 147t-141 425zM371 543q0 -312 245 -312 q246 0 246 312q0 311 -246 311q-245 0 -245 -311zM1159 655h455q-9 215 -215 215q-105 0 -167.5 -53t-72.5 -162z" />
<glyph unicode="&#x178;" horiz-adv-x="1474" d="M-25 1597h330l303 -475l129 -207l129 207l303 475h330l-618 -935v-662h-287v662zM360 1735v307h308v-307h-308zM807 1735v307h307v-307h-307z" />
<glyph unicode="&#x2c6;" horiz-adv-x="1228" d="M172 1212l317 426h250l318 -426h-283l-160 193l-159 -193h-283z" />
<glyph unicode="&#x2dc;" horiz-adv-x="1228" d="M109 1270q14 182 98 273.5t242 88.5q55 -1 101 -17t75.5 -38.5t54.5 -45t51.5 -38t52.5 -16.5q32 -1 54 10t33.5 33.5t16 41.5t7.5 46l223 -27q-14 -182 -98 -273.5t-242 -88.5q-55 1 -101 17t-76 38.5t-55 45t-51.5 38t-52.5 16.5q-32 1 -54 -10t-33 -33.5t-15.5 -41.5 t-7.5 -46z" />
<glyph unicode="&#x2000;" horiz-adv-x="1069" />
<glyph unicode="&#x2001;" horiz-adv-x="2138" />
<glyph unicode="&#x2002;" horiz-adv-x="1069" />
<glyph unicode="&#x2003;" horiz-adv-x="2138" />
<glyph unicode="&#x2004;" horiz-adv-x="712" />
<glyph unicode="&#x2005;" horiz-adv-x="534" />
<glyph unicode="&#x2006;" horiz-adv-x="356" />
<glyph unicode="&#x2007;" horiz-adv-x="356" />
<glyph unicode="&#x2008;" horiz-adv-x="267" />
<glyph unicode="&#x2009;" horiz-adv-x="427" />
<glyph unicode="&#x200a;" horiz-adv-x="118" />
<glyph unicode="&#x2010;" horiz-adv-x="757" d="M92 557v262h574v-262h-574z" />
<glyph unicode="&#x2011;" horiz-adv-x="757" d="M92 557v262h574v-262h-574z" />
<glyph unicode="&#x2012;" horiz-adv-x="757" d="M92 557v262h574v-262h-574z" />
<glyph unicode="&#x2013;" horiz-adv-x="1024" d="M92 557v262h840v-262h-840z" />
<glyph unicode="&#x2014;" horiz-adv-x="2048" d="M92 557v262h1864v-262h-1864z" />
<glyph unicode="&#x2018;" horiz-adv-x="415" d="M-29 1085l168 512h217l-61 -512h-324z" />
<glyph unicode="&#x2019;" horiz-adv-x="415" d="M59 1085l62 512h323l-168 -512h-217z" />
<glyph unicode="&#x201a;" horiz-adv-x="415" d="M25 -336l61 512h324l-168 -512h-217z" />
<glyph unicode="&#x201c;" horiz-adv-x="811" d="M-29 1085l168 512h217l-61 -512h-324zM367 1085l168 512h217l-62 -512h-323z" />
<glyph unicode="&#x201d;" horiz-adv-x="811" d="M59 1085l62 512h323l-168 -512h-217zM455 1085l61 512h324l-168 -512h-217z" />
<glyph unicode="&#x201e;" horiz-adv-x="813" d="M25 -336l61 512h324l-168 -512h-217zM420 -336l61 512h324l-168 -512h-217z" />
<glyph unicode="&#x2022;" horiz-adv-x="864" d="M115 369v635h635v-635h-635z" />
<glyph unicode="&#x2026;" horiz-adv-x="2088" d="M215 0v307h307v-307h-307zM891 0v307h307v-307h-307zM1567 0v307h307v-307h-307z" />
<glyph unicode="&#x202f;" horiz-adv-x="427" />
<glyph unicode="&#x2039;" horiz-adv-x="614" d="M86 547v196l426 291v-227l-182 -162l182 -162v-227z" />
<glyph unicode="&#x203a;" horiz-adv-x="614" d="M102 256v227l183 162l-183 162v227l426 -291v-196z" />
<glyph unicode="&#x205f;" horiz-adv-x="534" />
<glyph unicode="&#x20ac;" horiz-adv-x="1595" d="M51 530v199h189q-2 20 -2 53l2 54h-189v198h209q48 267 208.5 413t424.5 146q141 0 251 -35.5t182 -101t114 -152.5t55 -196l-291 -29q-16 122 -89 187t-222 65q-137 0 -221.5 -77.5t-114.5 -219.5h561l-65 -198h-521q-2 -21 -2 -54l2 -53h488l-66 -199h-397 q30 -142 114.5 -219.5t221.5 -77.5q149 0 222 65t89 187l291 -28q-13 -109 -55 -196t-114 -153t-182 -101.5t-251 -35.5q-264 0 -424.5 146t-208.5 413h-209z" />
<glyph unicode="&#x2122;" horiz-adv-x="1210" d="M10 1456v141h471v-141h-162v-412h-147v412h-162zM545 1044v553h209l94 -282l24 -80l25 80l94 282h209v-553h-151v248l2 76l-23 -68l-86 -256h-139l-86 256l-23 68l2 -76v-248h-151z" />
<glyph unicode="&#xe000;" horiz-adv-x="1085" d="M0 0v1085h1085v-1085h-1085z" />
<glyph unicode="&#xfb01;" horiz-adv-x="1464" d="M59 834v251h213v148q0 72 9.5 130.5t37.5 117t73.5 98t122 64t179.5 24.5q109 0 189 -33l-27 -264q-80 42 -158 37q-80 -3 -113.5 -41t-33.5 -147v-134h291v-251h-291v-834h-279v834h-213zM1026 1264v307h307v-307h-307zM1040 0v1085h279v-1085h-279z" />
<glyph unicode="&#xfb02;" horiz-adv-x="1464" d="M59 834v251h213v148q0 72 9.5 130.5t37.5 117t73.5 98t122 64t179.5 24.5q109 0 189 -33l-27 -264q-80 42 -158 37q-80 -3 -113.5 -41t-33.5 -147v-134h291v-251h-291v-834h-279v834h-213zM1040 0v1638h279v-1638h-279z" />
</font>
</defs>
</svg>
