<?xml version="1.0" standalone="no"?>
<!DOCTYPE svg PUBLIC "-//W3C//DTD SVG 1.1//EN" "http://www.w3.org/Graphics/SVG/1.1/DTD/svg11.dtd" >
<svg xmlns="http://www.w3.org/2000/svg">
<metadata></metadata>
<defs>
<font id="polaris_condensedbold" horiz-adv-x="1064" >
<font-face units-per-em="2048" ascent="1638" descent="-410" />
<missing-glyph horiz-adv-x="342" />
<glyph horiz-adv-x="2048" />
<glyph horiz-adv-x="2048" />
<glyph unicode="&#xd;" horiz-adv-x="2048" />
<glyph unicode=" "  horiz-adv-x="342" />
<glyph unicode="&#x09;" horiz-adv-x="342" />
<glyph unicode="&#xa0;" horiz-adv-x="342" />
<glyph unicode="!" horiz-adv-x="477" d="M82 1597h313l-53 -1126h-209zM96 0v283h285v-283h-285z" />
<glyph unicode="&#x22;" horiz-adv-x="866" d="M84 1597h319l-45 -512h-231zM465 1597h317l-43 -512h-231z" />
<glyph unicode="#" d="M45 360v246h141l60 352h-117v246h158l63 361h221l-61 -361h184l62 361h223l-61 -361h102v-246h-143l-58 -352h119v-246h-164l-59 -360h-223l61 360h-184l-62 -360h-221l59 360h-100zM410 606h186l59 352h-186z" />
<glyph unicode="$" horiz-adv-x="915" d="M55 299l72 236q160 -89 315 -89q83 0 121.5 29.5t38.5 89.5q0 61 -37 87t-137 44q-62 9 -103.5 18.5t-89 32t-75.5 54.5t-47 86.5t-19 128.5q0 176 97 255.5t284 82.5l62 211h239l-69 -226q77 -13 155 -53l-63 -233q-111 69 -275 69q-76 0 -113.5 -29t-37.5 -79 q0 -52 31 -77t118 -42q37 -6 57.5 -10t55 -12.5t54 -16.5t48 -22t44.5 -30.5t35 -40.5t29 -52.5t16.5 -66.5t6.5 -83q0 -183 -99 -265.5t-298 -84.5l-63 -211h-240l74 231q-118 26 -187 68z" />
<glyph unicode="%" horiz-adv-x="1738" d="M78 1149q0 240 73 339t257 99q185 0 258 -98.5t73 -339.5q0 -239 -73 -337.5t-258 -98.5q-184 0 -257 98.5t-73 337.5zM295 1149q0 -137 23.5 -184t89.5 -47q67 0 90.5 46.5t23.5 184.5t-23.5 185.5t-90.5 47.5q-65 0 -89 -47.5t-24 -185.5zM362 0l801 1565h213 l-801 -1565h-213zM999 416q0 239 73 337.5t259 98.5q184 0 257 -98.5t73 -337.5q0 -240 -73 -339.5t-257 -99.5q-185 0 -258.5 99.5t-73.5 339.5zM1217 416q0 -138 23.5 -186t90.5 -48q65 0 89 48t24 186q0 137 -23.5 184t-89.5 47q-67 0 -90.5 -46.5t-23.5 -184.5z" />
<glyph unicode="&#x26;" horiz-adv-x="1114" d="M57 436q0 237 166 414q-51 95 -82.5 201t-31.5 192q0 190 84 283.5t278 93.5q183 0 258.5 -84.5t75.5 -245.5q0 -72 -18.5 -133t-60 -118t-84.5 -100.5t-116 -107.5q106 -148 254 -296q21 115 21 225q0 102 -21 176l228 27q26 -80 26 -201q0 -220 -63 -400q44 -32 84 -55 v-330q-100 62 -215 160q-147 -160 -367 -160q-206 0 -311 122.5t-105 336.5zM317 463q0 -132 46.5 -191t134.5 -59q101 0 172 80q-156 156 -310 358q-43 -79 -43 -188zM367 1235q0 -105 51 -217q79 65 119.5 118t40.5 113q0 63 -22 97t-79 34q-110 0 -110 -145z" />
<glyph unicode="'" horiz-adv-x="485" d="M84 1597h319l-45 -512h-231z" />
<glyph unicode="(" horiz-adv-x="626" d="M82 717q0 288 63.5 552t161.5 431h268q-110 -240 -162.5 -473t-52.5 -510t52.5 -510t162.5 -473h-268q-98 167 -161.5 431t-63.5 552z" />
<glyph unicode=")" horiz-adv-x="626" d="M51 -266q110 240 162.5 473t52.5 510t-52.5 510t-162.5 473h268q98 -168 162 -431.5t64 -551.5t-64 -551.5t-162 -431.5h-268z" />
<glyph unicode="*" horiz-adv-x="724" d="M53 1311l56 172l180 -78l-17 192h181l-19 -192l182 78l56 -172l-178 -39l116 -133l-147 -107l-101 170l-100 -170l-147 107l114 133z" />
<glyph unicode="+" horiz-adv-x="1474" d="M184 662v274h416v416h274v-416h416v-274h-416v-416h-274v416h-416z" />
<glyph unicode="," horiz-adv-x="477" d="M57 -258l37 541h297l-129 -541h-205z" />
<glyph unicode="-" horiz-adv-x="823" d="M115 559v254h594v-254h-594z" />
<glyph unicode="." horiz-adv-x="477" d="M96 0v283h285v-283h-285z" />
<glyph unicode="/" horiz-adv-x="804" d="M29 -184l469 1966h278l-469 -1966h-278z" />
<glyph unicode="0" d="M88 782q0 172 8.5 293.5t30.5 213.5t53.5 148t84 90.5t115 47t152.5 12.5t152.5 -12.5t115 -47t84.5 -90.5t54 -148t30.5 -214t8.5 -293t-8.5 -293t-30.5 -214t-54 -148t-84.5 -90.5t-115 -47t-152.5 -12.5t-152.5 12.5t-115 47t-84 90.5t-53.5 148t-30.5 213.5 t-8.5 293.5zM365 782q0 -152 5 -248t14.5 -161.5t30.5 -96.5t47.5 -43t69.5 -12q36 0 59.5 7t44 29.5t31.5 59t19 101.5t11 151t3 213t-3 213t-11 151t-19 101.5t-31.5 59t-44 29.5t-59.5 7q-43 0 -69.5 -12t-47.5 -43t-30.5 -96.5t-14.5 -161.5t-5 -248z" />
<glyph unicode="1" d="M104 997v277q122 38 218 123.5t151 189.5h219v-1341h295v-246h-862v246h295v942q-109 -131 -316 -191z" />
<glyph unicode="2" d="M94 0q0 110 1 177.5t7.5 140.5t15.5 114.5t29 91.5t43.5 80t64 70t85.5 73t113 78q133 86 178 148t45 164q0 117 -29 164t-112 47q-82 0 -114 -60.5t-32 -214.5l-274 35q0 72 4.5 125t15.5 105.5t30.5 89t51 68.5t76.5 51t106.5 29.5t141.5 10.5q122 0 200.5 -24 t124.5 -78.5t64 -132.5t18 -197q0 -59 -6.5 -106t-16 -84.5t-32.5 -73t-45 -62t-64.5 -61.5t-79.5 -62t-102 -71q-52 -35 -87.5 -64t-60.5 -59t-38.5 -55t-21 -61t-9.5 -68t-2 -84h584v-244h-873z" />
<glyph unicode="3" d="M90 457l266 37q0 -151 35.5 -214t134.5 -63q95 0 133.5 56.5t38.5 179.5q0 70 -12.5 116.5t-37 70t-52.5 32t-68 8.5h-131v244h131q43 0 69 14.5t43 60.5t17 129q0 127 -28.5 173.5t-114.5 46.5t-114.5 -56.5t-28.5 -206.5l-269 35q1 97 13 167.5t40 129.5t74.5 95 t118 55.5t170.5 19.5q222 0 317 -95t95 -333q0 -155 -38.5 -233.5t-119.5 -114.5q100 -26 150.5 -115t50.5 -272q0 -106 -22.5 -185t-74 -139.5t-142 -91.5t-218.5 -31q-106 0 -182.5 22.5t-123 61t-74 101.5t-37 131.5t-9.5 163.5z" />
<glyph unicode="4" d="M70 346v219l460 1022h324v-995h139v-246h-139v-346h-262v346h-522zM315 584l277 8l14 655z" />
<glyph unicode="5" d="M94 434l275 37q2 -143 33.5 -198.5t125.5 -55.5q91 0 130.5 71.5t39.5 229.5q0 122 -18.5 191.5t-51 94.5t-87.5 25q-61 0 -109.5 -37t-73.5 -92l-231 35l37 830h758v-248h-519l-16 -373q49 61 107.5 90t140.5 29q66 0 116.5 -16t93 -54.5t70.5 -100.5t43 -155.5 t15 -218.5q0 -197 -49.5 -316.5t-147.5 -172t-256 -52.5q-121 0 -203 26.5t-131.5 84.5t-70.5 141t-21 205z" />
<glyph unicode="6" d="M100 780q0 127 4 218.5t16 181t33 149.5t54.5 112.5t81.5 82.5t113.5 46.5t150.5 16.5q116 0 193.5 -25t122 -79t63 -126t20.5 -177l-274 -35q-1 59 -6.5 95t-21 63t-43 38t-72.5 11q-31 0 -54 -8.5t-40.5 -23t-28.5 -44.5t-18.5 -63t-11 -90t-4.5 -113.5t-1 -143.5 q49 93 118.5 134.5t172.5 41.5q168 0 232.5 -120.5t64.5 -405.5q0 -140 -21 -237t-70.5 -166.5t-133.5 -102.5t-208 -33q-93 0 -160 17.5t-116 60t-78.5 101t-47 154t-24 204.5t-6.5 266zM379 645q0 -165 15 -258t47.5 -133.5t90.5 -40.5q92 0 124 65.5t32 229.5 q0 162 -30 229.5t-99 67.5q-64 0 -100.5 -36.5t-79.5 -123.5z" />
<glyph unicode="7" d="M98 1317v248h873v-168l-430 -1397h-295l338 1028l102 291l-225 -2h-363z" />
<glyph unicode="8" d="M80 412q0 318 190 399q-74 28 -119 120t-45 226q0 234 96.5 332t329.5 98t329.5 -98t96.5 -332q0 -134 -44.5 -226t-118.5 -120q190 -81 190 -399q0 -105 -21.5 -181.5t-72.5 -135.5t-140.5 -88.5t-218.5 -29.5t-218.5 29.5t-140 88.5t-72 135.5t-21.5 181.5zM346 453 q0 -122 43 -177t143 -55t143.5 55.5t43.5 176.5q0 72 -13 120t-39 73t-57.5 34.5t-77.5 9.5t-77.5 -9.5t-57.5 -34.5t-38.5 -73t-12.5 -120zM377 1128q0 -114 39 -163.5t116 -49.5t116.5 49.5t39.5 163.5q0 120 -35 166.5t-121 46.5t-120.5 -46.5t-34.5 -166.5z" />
<glyph unicode="9" d="M100 1049q0 140 20.5 237t69.5 166.5t132.5 102t207.5 32.5q94 0 161.5 -17.5t116.5 -60t79 -101t47.5 -154t24 -204.5t6.5 -266q0 -126 -4.5 -218t-16 -181.5t-32.5 -149.5t-55 -112.5t-82 -82.5t-113 -46.5t-150 -16.5q-117 0 -194.5 25t-122 79t-62.5 126t-20 178 l272 35q3 -117 31 -162t112 -45q37 0 62.5 8.5t44 33t28.5 55t16 90t7.5 121t1.5 163.5q-48 -87 -117.5 -124.5t-173.5 -37.5q-160 0 -228.5 123.5t-68.5 403.5zM377 1057q0 -159 31.5 -228t97.5 -69q64 0 104.5 36t75.5 109q0 244 -35.5 345.5t-120.5 101.5 q-92 0 -122.5 -65t-30.5 -230z" />
<glyph unicode=":" horiz-adv-x="477" d="M96 0v283h285v-283h-285zM96 692v281h285v-281h-285z" />
<glyph unicode=";" horiz-adv-x="477" d="M57 -258l37 541h297l-129 -541h-205zM96 692v281h285v-281h-285z" />
<glyph unicode="&#x3c;" horiz-adv-x="1474" d="M184 682v233l1106 500v-299l-522 -217l-262 -100l262 -101l522 -217v-299z" />
<glyph unicode="=" horiz-adv-x="1474" d="M184 426v274h1106v-274h-1106zM184 897v274h1106v-274h-1106z" />
<glyph unicode="&#x3e;" horiz-adv-x="1474" d="M184 182v299l523 217l262 101l-262 100l-523 217v299l1106 -500v-233z" />
<glyph unicode="?" horiz-adv-x="1003" d="M61 1147q0 127 21 213.5t71 147.5t134.5 89.5t210.5 28.5q234 0 336 -94.5t102 -323.5q0 -57 -8 -104.5t-20 -82.5t-34 -67t-41 -52t-52 -43t-55.5 -36t-61.5 -34q-9 -5 -13 -7q-63 -35 -84.5 -69t-23.5 -90q0 -70 26 -152h-190q-60 112 -60 219q0 99 42.5 159t154.5 118 q75 43 106 89.5t31 135.5q0 104 -36 146t-117 42q-97 0 -134.5 -58t-37.5 -210zM332 0v283h284v-283h-284z" />
<glyph unicode="@" horiz-adv-x="2007" d="M88 604q0 519 229.5 777.5t718.5 258.5q883 0 883 -841q0 -342 -129 -507t-432 -165h-172l-12 109q-102 -134 -263 -134q-196 0 -282 123.5t-86 380.5t85.5 379.5t282.5 122.5q92 0 159 -38.5t106 -92.5l10 108h237l-8 -241v-490q61 1 104 21t70 54.5t42 91.5t20.5 121.5 t5.5 156.5q0 84 -6.5 150.5t-24.5 131.5t-48 113t-77 89t-111.5 67t-153.5 40.5t-200 14.5q-189 0 -317.5 -44.5t-210 -142.5t-117 -247t-35.5 -367t36.5 -366.5t120 -247.5t217.5 -143t333 -44q221 0 384.5 38.5t336.5 115.5l96 -215q-346 -174 -817 -174 q-510 0 -742.5 257t-232.5 779zM813 606q0 -132 37.5 -198t122.5 -66q108 0 174 109v311q-66 108 -174 108q-85 0 -122.5 -65.5t-37.5 -198.5z" />
<glyph unicode="A" horiz-adv-x="1044" d="M35 0l278 1612h418l279 -1612h-281l-45 291h-326l-43 -291h-280zM393 520h256l-127 844z" />
<glyph unicode="B" horiz-adv-x="1122" d="M111 0v1597h538q66 0 117.5 -10.5t98.5 -38.5t78 -74.5t49 -122t18 -177.5q0 -265 -152 -336q197 -50 197 -385q0 -249 -98 -351t-295 -102h-551zM389 248h213q86 0 129 44.5t43 168.5q0 131 -44 182t-120 51h-221v-446zM389 940h199q141 0 141 211q0 115 -34 157 t-107 42h-199v-410z" />
<glyph unicode="C" horiz-adv-x="1107" d="M86 799q0 234 29 392.5t92 253.5t152.5 135t220.5 40q135 0 224 -27.5t140.5 -90t72.5 -150t23 -219.5l-274 -37q-2 165 -41.5 223.5t-151.5 58.5q-122 0 -165 -133.5t-43 -445.5t43 -446t165 -134q112 0 151.5 59t41.5 224l274 -35q-2 -133 -23 -221t-72.5 -150.5 t-140.5 -90.5t-224 -28q-104 0 -181.5 25.5t-138 83.5t-98 153t-57 233.5t-19.5 326.5z" />
<glyph unicode="D" horiz-adv-x="1165" d="M111 0v1597h403q110 0 191.5 -16t146 -54.5t106.5 -97.5t70 -149.5t39.5 -207t12 -273.5t-11.5 -273.5t-40 -207.5t-70 -150t-106.5 -97.5t-146 -54.5t-191.5 -16h-403zM389 248h133q48 0 84.5 7t65.5 23.5t49 37.5t34.5 57.5t23.5 74.5t14 96t6.5 115.5t1.5 139.5 t-1.5 139.5t-6.5 115.5t-14 96t-23.5 74.5t-34.5 57.5t-49 37.5t-65.5 23.5t-84.5 7h-133v-1102z" />
<glyph unicode="E" horiz-adv-x="964" d="M111 0v1597h757v-247h-481v-410h401v-246h-401v-446h510v-248h-786z" />
<glyph unicode="F" horiz-adv-x="913" d="M111 0v1597h749v-247h-473v-410h406v-246h-406v-694h-276z" />
<glyph unicode="G" horiz-adv-x="1146" d="M86 799q0 181 15.5 311t50.5 230.5t95 160t146.5 89.5t206.5 30q113 0 192.5 -19t131.5 -54.5t81.5 -97t42 -135.5t13.5 -181l-275 -37q-1 164 -42 223t-150 59q-135 0 -182 -130t-47 -449q0 -69 0.5 -115.5t2.5 -101t5.5 -89.5t10 -74t15.5 -63.5t22 -49.5t30 -39 t39 -26t49 -17t61 -5q113 0 193 39v389h-181v230h447v-781q-97 -62 -203 -90.5t-262 -28.5q-102 0 -178.5 19.5t-133.5 63.5t-94.5 107t-60 158t-32 208.5t-9.5 265.5z" />
<glyph unicode="H" horiz-adv-x="1140" d="M111 0v1597h276v-657h367v657h276v-1597h-276v694h-367v-694h-276z" />
<glyph unicode="I" horiz-adv-x="520" d="M121 0v1597h278v-1597h-278z" />
<glyph unicode="J" horiz-adv-x="942" d="M27 393l268 33q0 -109 27 -160q27 -49 99 -49h3q76 1 103.5 46t27.5 153v1181h274v-1179q0 -239 -98.5 -340t-312.5 -101q-119 0 -197.5 28t-120 85.5t-57.5 128.5t-16 174z" />
<glyph unicode="K" horiz-adv-x="1097" d="M111 0v1597h276l-6 -753l328 753h329l-354 -696l383 -901h-332l-237 657l-117 -217l6 -440h-276z" />
<glyph unicode="L" horiz-adv-x="860" d="M111 0v1597h276v-1349h432v-248h-708z" />
<glyph unicode="M" horiz-adv-x="1435" d="M111 0v1597h387l219 -1087l219 1087h387v-1597h-272l14 1020l-231 -1020h-234l-229 1020l14 -1020h-274z" />
<glyph unicode="N" horiz-adv-x="1157" d="M111 0v1597h307l235 -657l138 -399l-5 387v669h258v-1597h-307l-235 657l-135 400l4 -387l2 -670h-262z" />
<glyph unicode="O" horiz-adv-x="1134" d="M86 799q0 150 8.5 261t29 207t55.5 159t88.5 108.5t127.5 65.5t172 20q84 0 150.5 -15.5t117 -46t87 -81t61.5 -113.5t39.5 -151t20.5 -187t6 -227q0 -150 -8.5 -261t-29.5 -207t-56 -159.5t-88.5 -108.5t-127.5 -65.5t-172 -20.5t-172 20.5t-127.5 65.5t-88.5 108.5 t-55.5 159.5t-29 207t-8.5 261zM365 799q0 -337 39.5 -458.5t162.5 -121.5t163 122t40 458t-40 457.5t-163 121.5t-162.5 -121t-39.5 -458z" />
<glyph unicode="P" horiz-adv-x="1040" d="M115 0v1597h438q75 0 135.5 -13t117 -48t94.5 -91.5t60.5 -147.5t22.5 -212q0 -122 -22 -213.5t-59.5 -148t-93 -91.5t-115 -48t-134.5 -13h-168v-571h-276zM391 819h148q87 0 125 58.5t38 207.5q0 147 -38 206t-125 59h-148v-531z" />
<glyph unicode="Q" horiz-adv-x="1134" d="M86 799q0 150 8.5 261t29 207t55.5 159t88.5 108.5t127.5 65.5t172 20q84 0 150.5 -15.5t117 -46t87 -81t61.5 -113.5t39.5 -151t20.5 -187t6 -227q0 -131 -6.5 -232t-22 -190t-41.5 -152.5t-65 -113t-92.5 -79t-123.5 -42.5l265 -180l-129 -248l-560 495 q-102 90 -145 266.5t-43 475.5zM365 799q0 -337 39.5 -458.5t162.5 -121.5t163 122t40 458t-40 457.5t-163 121.5t-162.5 -121t-39.5 -458z" />
<glyph unicode="R" horiz-adv-x="1077" d="M111 0v1597h450q64 0 113.5 -7t101 -25.5t88.5 -54t67 -88.5t45 -133.5t15 -184.5q0 -138 -27.5 -235.5t-69.5 -148t-103 -81.5l235 -639h-315l-185 606h-137v-606h-278zM389 856h135q38 0 64 5t51 20.5t39.5 42.5t23.5 72t9 108t-9 107.5t-23.5 71t-39.5 42t-51 20.5 t-64 5h-135v-494z" />
<glyph unicode="S" horiz-adv-x="1042" d="M55 467l267 35q1 -64 5.5 -106t15.5 -79t31.5 -57t53 -31.5t80.5 -11.5q105 0 153 50t48 167q0 63 -12.5 103.5t-45.5 69t-75 46t-117 37.5q-67 18 -114 36t-100 54t-85.5 83t-54 123t-21.5 175q0 242 104.5 353.5t352.5 111.5q80 0 142.5 -12.5t106.5 -33t75 -55.5 t49.5 -72t29.5 -92t14.5 -105.5t4.5 -120.5l-269 -35q0 60 -2.5 98.5t-12 76.5t-27 58.5t-47.5 33.5t-73 13q-85 0 -127.5 -50t-42.5 -161q0 -63 9.5 -101t38 -64t66 -40t108.5 -30q79 -17 135 -37t108.5 -55.5t84 -85.5t51 -126t20.5 -177q0 -260 -116.5 -371t-364.5 -111 q-92 0 -161.5 13.5t-119 42.5t-81.5 68t-50.5 97.5t-26 123t-8.5 151.5z" />
<glyph unicode="T" horiz-adv-x="931" d="M41 1350v247h850v-247h-287v-1350h-276v1350h-287z" />
<glyph unicode="U" horiz-adv-x="1101" d="M102 414v1183h279v-1171q0 -117 32.5 -163t137.5 -46t137.5 46t32.5 163v1171h276v-1183q0 -78 -7.5 -136.5t-26.5 -110t-51.5 -86.5t-81.5 -60.5t-118.5 -37.5t-160.5 -12q-109 0 -187.5 18t-129 51.5t-80 89.5t-41 123t-11.5 161z" />
<glyph unicode="V" horiz-adv-x="1044" d="M35 1597h280l207 -1364l207 1364h281l-279 -1611h-418z" />
<glyph unicode="W" horiz-adv-x="1480" d="M55 1597h258l103 -1224l168 1224h313l168 -1224l102 1224h260l-157 -1611h-375l-154 1210l-155 -1210h-375z" />
<glyph unicode="X" horiz-adv-x="1142" d="M37 0l297 825l-268 772h311l194 -604l195 604h311l-268 -772l297 -825h-322l-213 631l-211 -631h-323z" />
<glyph unicode="Y" horiz-adv-x="1056" d="M12 1597h285l231 -755l232 755h284l-380 -1046l4 -551h-277l2 551z" />
<glyph unicode="Z" horiz-adv-x="1030" d="M59 0v201l498 989l86 164l-272 -2h-281v245h862v-200l-497 -989l-86 -164l274 2h318v-246h-902z" />
<glyph unicode="[" horiz-adv-x="626" d="M160 -266v1966h415v-248h-139v-1470h139v-248h-415z" />
<glyph unicode="\" horiz-adv-x="804" d="M29 1782h278l469 -1966h-278z" />
<glyph unicode="]" horiz-adv-x="634" d="M61 -18h138v1470h-138v248h414v-1966h-414v248z" />
<glyph unicode="^" horiz-adv-x="1165" d="M41 819l420 807h244l419 -807h-288l-160 322l-92 192l-95 -192l-159 -322h-289z" />
<glyph unicode="_" horiz-adv-x="722" d="M63 -211h596v-199h-596v199z" />
<glyph unicode="`" horiz-adv-x="1269" d="M381 1638h303l94 -426h-272z" />
<glyph unicode="a" horiz-adv-x="974" d="M57 309q0 86 23.5 146.5t76 102.5t127.5 67t185 41l137 20v98q0 59 -26.5 89t-90.5 30q-65 0 -92.5 -36t-27.5 -124l-275 33q0 83 17 140.5t60.5 103t123 67t199.5 21.5q149 0 232 -34.5t117 -107.5t34 -204v-479l6 -283h-242l-12 109q-54 -71 -122 -101.5t-171 -30.5 q-279 0 -279 332zM328 332q0 -137 114 -137q99 0 164 88v231l-114 -18q-84 -11 -124 -47.5t-40 -116.5z" />
<glyph unicode="b" horiz-adv-x="1038" d="M94 0l6 283v1355h271v-641q46 56 101.5 83.5t143.5 27.5q181 0 269 -137t88 -428t-88 -428.5t-269 -137.5q-90 0 -153.5 32.5t-114.5 99.5l-12 -109h-242zM371 319q81 -104 172 -104q90 0 121.5 72.5t31.5 255.5t-31.5 255t-121.5 72q-91 0 -172 -104v-447z" />
<glyph unicode="c" horiz-adv-x="933" d="M66 543q0 308 97.5 436.5t328.5 128.5q117 0 195.5 -24t119.5 -72.5t56.5 -107t15.5 -142.5l-261 -35q0 76 -25 111.5t-101 35.5q-87 0 -122.5 -71.5t-35.5 -259.5t35.5 -260t122.5 -72q76 0 101 35.5t25 111.5l261 -34q0 -84 -15.5 -142.5t-56.5 -107.5t-119.5 -73 t-195.5 -24q-231 0 -328.5 129t-97.5 437z" />
<glyph unicode="d" horiz-adv-x="1038" d="M66 543q0 291 87.5 428t268.5 137q88 0 145 -27.5t101 -83.5v641h268v-1355l8 -283h-242l-12 109q-51 -67 -114.5 -99.5t-153.5 -32.5q-181 0 -268.5 137.5t-87.5 428.5zM342 543q0 -181 32.5 -254.5t121.5 -73.5q94 0 172 104v447q-78 104 -172 104q-89 0 -121.5 -73 t-32.5 -254z" />
<glyph unicode="e" horiz-adv-x="970" d="M66 543q0 146 19.5 246t67 174.5t131.5 109.5t208 35q100 0 173 -24t120.5 -68t75.5 -116t39 -157t11 -202v-95h-563q0 -134 29.5 -193.5t114.5 -59.5q71 0 102 35t31 108l272 -35q0 -60 -9 -105.5t-34.5 -88.5t-69 -70t-115.5 -43.5t-171 -16.5q-104 0 -179.5 24 t-124 68t-77 116t-40 157t-11.5 201zM348 643h277q-2 135 -30 192.5t-106 57.5t-108.5 -57t-32.5 -193z" />
<glyph unicode="f" horiz-adv-x="694" d="M49 860v225h121v279q0 144 83.5 220.5t248.5 76.5q107 0 172 -25l-15 -223q-48 19 -104 19q-61 0 -89 -24t-28 -83v-240h197v-225h-197v-860h-268v860h-121z" />
<glyph unicode="g" horiz-adv-x="1040" d="M70 569q0 276 87.5 407.5t266.5 131.5q91 0 154 -32t114 -99l13 108h241l-6 -282v-860q0 -195 -105 -285t-319 -90q-122 0 -203 19t-130.5 62t-70 105t-20.5 154l264 35v-9q0 -74 31 -112q33 -39 121 -39t125 42.5t37 131.5v182q-43 -55 -100 -82.5t-146 -27.5 q-179 0 -266.5 131.5t-87.5 408.5zM346 569q0 -165 32 -233t120 -68q93 0 172 103v395q-78 104 -172 104q-88 0 -120 -68t-32 -233z" />
<glyph unicode="h" horiz-adv-x="1028" d="M98 0v1638h271v-641q111 111 295 111q272 0 272 -291v-817h-268v754q0 116 -113 116q-116 0 -186 -102v-768h-271z" />
<glyph unicode="i" horiz-adv-x="473" d="M94 1288v281h285v-281h-285zM102 0v1085h269v-1085h-269z" />
<glyph unicode="j" horiz-adv-x="473" d="M-115 -414l15 226q39 -17 104 -17q49 0 73.5 21.5t24.5 77.5v1191h269v-1226q0 -297 -314 -297q-106 0 -172 24zM94 1288v281h285v-281h-285z" />
<glyph unicode="k" horiz-adv-x="1003" d="M98 0v1638h271l-9 -983l261 430h321l-311 -423l344 -662h-316l-200 428l-99 -137l9 -291h-271z" />
<glyph unicode="l" horiz-adv-x="475" d="M102 0v1638h271v-1638h-271z" />
<glyph unicode="m" horiz-adv-x="1509" d="M94 1085h242l12 -112q114 135 299 135q99 0 152.5 -39.5t68.5 -89.5q52 61 130 95t171 34q248 0 248 -268v-840h-270v774q0 96 -96 96q-92 0 -158 -92v-778h-268v774q0 96 -99 96q-92 0 -155 -92v-778h-271v803z" />
<glyph unicode="n" horiz-adv-x="1030" d="M94 1085h240l12 -108q62 65 137.5 98t182.5 33q272 0 272 -291v-817h-268v754q0 116 -113 116q-116 0 -186 -102v-768h-271v803z" />
<glyph unicode="o" horiz-adv-x="991" d="M66 543q0 129 16 224t48 160.5t84.5 105.5t120.5 57.5t161 17.5q155 0 246.5 -50.5t137.5 -174.5t46 -340q0 -214 -46 -338.5t-137.5 -176t-246.5 -51.5q-93 0 -160.5 17.5t-120.5 57t-85 105t-48 160.5t-16 226zM334 543q0 -129 18 -202t52 -100.5t92 -27.5t91.5 27.5 t51.5 100t18 202.5q0 129 -18 201.5t-51.5 100t-91.5 27.5t-92 -27t-52 -100t-18 -202z" />
<glyph unicode="p" horiz-adv-x="1038" d="M94 1085h242l12 -108q51 67 114.5 99t153.5 32q181 0 269 -137t88 -428t-88 -428.5t-269 -137.5q-88 0 -143.5 27.5t-101.5 83.5v-498h-271v1213zM371 319q81 -104 172 -104q90 0 121.5 72.5t31.5 255.5t-31.5 255t-121.5 72q-91 0 -172 -104v-447z" />
<glyph unicode="q" horiz-adv-x="1036" d="M66 543q0 292 86.5 428.5t267.5 136.5q92 0 155.5 -32.5t112.5 -98.5l12 108h242l-6 -282v-1213h-270v498q-44 -56 -100.5 -83.5t-145.5 -27.5q-181 0 -267.5 137t-86.5 429zM340 543q0 -181 32.5 -254.5t121.5 -73.5q94 0 172 104v447q-78 104 -172 104 q-89 0 -121.5 -73t-32.5 -254z" />
<glyph unicode="r" horiz-adv-x="698" d="M94 1085h240l14 -118q39 69 97 105t124 36q55 0 88 -21l-14 -247q-21 8 -70 8q-117 0 -202 -98v-750h-271v803z" />
<glyph unicode="s" horiz-adv-x="931" d="M55 307l267 33q0 -80 26 -118t105 -38q78 0 109.5 34.5t31.5 103.5q0 37 -9.5 60t-34 36.5t-48 20t-70.5 14.5q-64 8 -108 17t-88 24.5t-72 38t-50 56t-32 80t-10 107.5q0 332 395 332q120 0 195 -17.5t115.5 -60t54.5 -97.5t14 -145l-266 -34q0 76 -23 111.5t-84 35.5 q-60 0 -84 -31.5t-24 -95.5q0 -61 29 -83.5t108 -37.5q78 -9 128 -19.5t101.5 -33t80.5 -55.5t47 -87.5t18 -129.5q0 -186 -110 -268.5t-318 -82.5q-86 0 -149 8.5t-106.5 27.5t-70.5 44t-42 65t-20.5 82t-5.5 103z" />
<glyph unicode="t" horiz-adv-x="735" d="M47 860v225h127v287l268 4v-291h224v-225h-224v-551q0 -57 25.5 -79.5t73.5 -22.5q52 0 104 18l14 -223q-69 -25 -174 -25q-311 0 -311 297v586h-127z" />
<glyph unicode="u" horiz-adv-x="1030" d="M92 270v815h268v-753q0 -117 111 -117q115 0 188 102v768h271v-802l6 -283h-240l-12 109q-62 -66 -137 -99t-182 -33q-273 0 -273 293z" />
<glyph unicode="v" horiz-adv-x="929" d="M33 1085h282l148 -858l149 858h285l-238 -1091h-389z" />
<glyph unicode="w" horiz-adv-x="1320" d="M55 1085h258l78 -731l139 731h261l137 -731l78 731h260l-156 -1091h-311l-140 751l-139 -751h-311z" />
<glyph unicode="x" horiz-adv-x="993" d="M47 0l223 557l-200 528h299l129 -411l127 411h299l-201 -528l223 -557h-313l-135 418l-138 -418h-313z" />
<glyph unicode="y" horiz-adv-x="985" d="M33 1085h284l175 -780l174 780h286l-315 -1054l-150 -441h-303l160 406z" />
<glyph unicode="z" horiz-adv-x="849" d="M47 0v184l414 668l-385 -4v237h700v-184l-414 -668l441 5v-238h-756z" />
<glyph unicode="{" horiz-adv-x="694" d="M25 596v244h45q64 0 95.5 30t31.5 103v352q0 48 6 89t20.5 86t43 79t70.5 62.5t106 43.5t145 15h78v-248h-60q-139 0 -139 -133v-369q0 -79 -33 -142t-98 -91q65 -28 98 -91t33 -141v-370q0 -133 139 -133h60v-248h-78q-81 0 -145 15t-106 43.5t-70.5 62.5t-43 79 t-20.5 86t-6 89v354q0 73 -31.5 103t-95.5 30h-45z" />
<glyph unicode="|" horiz-adv-x="636" d="M180 -266v1966h277v-1966h-277z" />
<glyph unicode="}" horiz-adv-x="694" d="M27 -18h61q137 0 137 133v368q0 79 33.5 142.5t99.5 91.5q-66 28 -99.5 90.5t-33.5 140.5v371q0 133 -137 133h-61v248h77q97 0 169.5 -22.5t114.5 -58t67.5 -87t34 -100t8.5 -107.5v-354q0 -73 31.5 -103t93.5 -30h45v-244h-45q-62 0 -93.5 -30t-31.5 -103v-352 q0 -59 -8.5 -107.5t-34 -100t-67.5 -87t-114.5 -58t-169.5 -22.5h-77v248z" />
<glyph unicode="~" horiz-adv-x="1046" d="M66 707q6 14 25.5 36.5t52.5 49.5t85.5 46t110.5 19q63 0 121 -17t94.5 -38t84.5 -38t95 -17q38 0 74 16t52 29.5t22 21.5l116 -149q-6 -13 -25.5 -35.5t-52.5 -50t-85.5 -47t-110.5 -19.5q-63 0 -121 17.5t-94.5 39t-84.5 39t-95 17.5q-38 0 -74 -16.5t-52 -30 t-22 -21.5z" />
<glyph unicode="&#xa1;" horiz-adv-x="559" d="M127 -410l49 1026h209l47 -1026h-305zM137 803v282h285v-282h-285z" />
<glyph unicode="&#xa2;" horiz-adv-x="933" d="M66 782q0 303 94 435.5t313 136.5l64 211h237l-74 -240q101 -36 140 -115t39 -204l-261 -35q0 77 -25 112t-101 35q-86 0 -122 -73.5t-36 -262.5t36 -262.5t122 -73.5q76 0 101 35.5t25 112.5l261 -35q0 -82 -15 -140t-53.5 -106.5t-112 -74t-182.5 -27.5l-63 -211h-240 l76 244q-119 49 -171 177.5t-52 360.5z" />
<glyph unicode="&#xa3;" horiz-adv-x="1122" d="M82 0v248h154v454h-154v228h154v239q0 62 4 108.5t14.5 92t29.5 77.5t49.5 60t73 44.5t101.5 26t135 9.5q105 0 179 -18.5t118.5 -50t69.5 -86.5t33.5 -115t9.5 -148l-271 -34q0 52 -2.5 83.5t-10 61.5t-22.5 45.5t-40.5 25t-63.5 9.5q-37 0 -62 -9.5t-40 -25 t-22.5 -45.5t-10 -61.5t-2.5 -83.5v-205h348v-228h-348v-454h545v-248h-969z" />
<glyph unicode="&#xa4;" horiz-adv-x="1628" d="M72 231l209 207q-93 145 -93 344t93 344l-209 207l180 180l213 -213q150 89 350 89q197 0 350 -89l211 213l180 -180l-208 -207q92 -143 92 -344t-92 -344l208 -207l-180 -180l-213 213q-148 -88 -348 -88q-202 0 -350 88l-213 -213zM473 782q0 -177 89.5 -265.5 t252.5 -88.5q161 0 251.5 88.5t90.5 265.5t-90.5 266t-251.5 89q-162 0 -252 -89t-90 -266z" />
<glyph unicode="&#xa5;" horiz-adv-x="1118" d="M45 1565h287l227 -744l227 744h287l-293 -801h226v-176h-291l-21 -58v-57h312v-176h-312l4 -297h-278l2 297h-309v176h311l2 57l-23 58h-290v176h227z" />
<glyph unicode="&#xa6;" horiz-adv-x="667" d="M190 -266v893h287v-893h-287zM190 807v893h287v-893h-287z" />
<glyph unicode="&#xa7;" horiz-adv-x="1056" d="M86 547q0 156 47 238.5t146 119.5q-71 26 -104.5 109.5t-33.5 183.5q0 217 104 319.5t318 102.5q86 0 150.5 -12t108 -38t71 -58.5t42.5 -83.5t20 -102t6 -124l-269 -35q0 61 -4 97.5t-17.5 68.5t-40 46t-69.5 14q-135 0 -135 -187q0 -89 38 -134t134 -60 q73 -10 124.5 -24t101.5 -40.5t80 -65.5t48.5 -99.5t18.5 -141.5q0 -156 -47 -238.5t-146 -119.5q71 -26 105.5 -110t34.5 -183q0 -216 -104.5 -319t-317.5 -103q-75 0 -133 9.5t-100 26.5t-71.5 45.5t-48 60t-29 77.5t-14.5 91.5t-4 107.5l269 34q0 -121 24.5 -173 t106.5 -52q135 0 135 187q0 89 -38 134t-132 60q-92 13 -154 33t-115.5 60t-79.5 109t-26 169zM365 582q0 -97 39 -135.5t120 -38.5q92 0 130 45.5t38 152.5q0 97 -39 135.5t-121 38.5q-91 0 -129 -45.5t-38 -152.5z" />
<glyph unicode="&#xa8;" horiz-adv-x="1269" d="M276 1288v281h285v-281h-285zM709 1288v281h284v-281h-284z" />
<glyph unicode="&#xa9;" horiz-adv-x="1884" d="M115 799q0 168 65.5 321.5t176 264t264 176t321.5 65.5t321.5 -65.5t264 -176t176 -264t65.5 -321.5t-65.5 -321.5t-176 -264.5t-264 -176.5t-321.5 -65.5t-321.5 65.5t-264 176.5t-176 264.5t-65.5 321.5zM426 799q0 -267 135.5 -410t380.5 -143q102 0 182 20t133 54 t90 84.5t56.5 105t30.5 121.5l-285 37q-21 -80 -65.5 -118.5t-141.5 -35.5q-231 6 -231 285q0 278 231 284q97 3 141.5 -35t65.5 -118l285 37q-11 67 -30.5 121.5t-56.5 105t-90 84.5t-133 54t-182 20q-245 0 -380.5 -143t-135.5 -410z" />
<glyph unicode="&#xaa;" horiz-adv-x="804" d="M53 1028q0 127 79 187.5t241 78.5l104 13v69q0 28 -21 46t-57 18q-41 0 -58 -25t-17 -88l-248 31q0 68 13 113.5t47.5 82.5t99.5 54.5t163 17.5q130 0 199 -28.5t96 -89.5t27 -175v-309l10 -225h-215l-6 69q-71 -98 -225 -98q-108 0 -170 67t-62 191zM295 1053 q0 -39 22 -63.5t60 -24.5q28 0 58 10.5t42 25.5v162l-84 -14q-98 -16 -98 -96z" />
<glyph unicode="&#xab;" horiz-adv-x="1097" d="M106 561v168l426 303v-225l-188 -162l188 -162v-225zM549 561v168l426 303v-225l-189 -162l189 -162v-225z" />
<glyph unicode="&#xac;" horiz-adv-x="1474" d="M184 897v274h1106v-745h-274v471h-832z" />
<glyph unicode="&#xad;" horiz-adv-x="823" d="M115 559v254h594v-254h-594z" />
<glyph unicode="&#xae;" horiz-adv-x="1884" d="M115 799q0 168 65.5 321.5t176 264t264 176t321.5 65.5t321.5 -65.5t264 -176t176 -264t65.5 -321.5t-65.5 -321.5t-176 -264.5t-264 -176.5t-321.5 -65.5t-321.5 65.5t-264 176.5t-176 264.5t-65.5 321.5zM537 274h243v388h144l190 -388h297l-227 420q178 70 178 299 q0 330 -361 330h-464v-1049zM780 901v182h230q20 0 35.5 -3t32 -11t25.5 -27.5t9 -48.5q0 -30 -9 -49.5t-25.5 -28t-32 -11.5t-35.5 -3h-230z" />
<glyph unicode="&#xaf;" horiz-adv-x="1269" d="M395 1313v252h479v-252h-479z" />
<glyph unicode="&#xb0;" horiz-adv-x="993" d="M100 1217q0 185 109.5 280.5t288.5 95.5q177 0 286 -95.5t109 -280.5t-109 -281t-286 -96q-178 0 -288 96t-110 281zM309 1217q0 -90 50 -135.5t139 -45.5q87 0 136.5 45.5t49.5 135.5q0 91 -49 135.5t-137 44.5q-89 0 -139 -44.5t-50 -135.5z" />
<glyph unicode="&#xb1;" horiz-adv-x="1474" d="M184 242v274h1106v-274h-1106zM184 866v275h416v211h274v-211h416v-275h-416v-211h-274v211h-416z" />
<glyph unicode="&#xb2;" horiz-adv-x="575" d="M49 748q0 63 0.5 96.5t3.5 75.5t7 62.5t14.5 49t22.5 44t33.5 38t45.5 41t60 43.5q55 37 74.5 64t19.5 73q0 43 -7.5 59.5t-31.5 16.5q-22 0 -31.5 -26.5t-9.5 -102.5l-191 25q1 61 5 98.5t17.5 74t39.5 55.5t69 30.5t107 11.5q128 0 175.5 -50t47.5 -177q0 -46 -6 -78 t-15 -55.5t-34.5 -49t-49.5 -44.5t-75 -56q-60 -43 -76 -71.5t-16 -77.5h278v-170h-477z" />
<glyph unicode="&#xb3;" horiz-adv-x="575" d="M43 1006l184 24q0 -75 13 -102t47 -27q32 0 42.5 22t10.5 72q0 51 -14 68.5t-50 17.5h-57v168h57q24 0 31.5 15t7.5 63q0 52 -7 68t-32 16q-27 0 -33.5 -22.5t-6.5 -96.5l-185 23q1 72 11 119t35.5 80.5t69.5 48t112 14.5q120 0 172.5 -50.5t52.5 -178.5 q0 -81 -16.5 -119t-53.5 -58q49 -13 72.5 -57t23.5 -137q0 -118 -55 -180t-194 -62q-76 0 -124.5 17.5t-72.5 55.5t-32.5 83t-8.5 115z" />
<glyph unicode="&#xb4;" horiz-adv-x="1269" d="M492 1212l94 426h303l-125 -426h-272z" />
<glyph unicode="&#xb5;" horiz-adv-x="1030" d="M92 -410v1495h268v-753q0 -117 111 -117q115 0 188 102v768h271v-802l6 -283h-240l-12 109q-41 -64 -115 -98t-151 -34q-10 0 -29.5 1.5t-28.5 1.5v-390h-268z" />
<glyph unicode="&#xb6;" horiz-adv-x="1062" d="M57 1085q0 121 22.5 212t60.5 147.5t94.5 91.5t117 48t135.5 13h461v-1597h-276v1350h-74v-1350h-74v571h-43q-75 0 -135 13t-115.5 48t-92.5 91.5t-59 148t-22 213.5zM340 1085q0 -149 37.5 -207.5t124.5 -58.5h22v531h-22q-87 0 -124.5 -58.5t-37.5 -206.5z" />
<glyph unicode="&#xb7;" horiz-adv-x="591" d="M147 541v295h299v-295h-299z" />
<glyph unicode="&#xb8;" horiz-adv-x="1269" d="M381 -395l43 125q51 -27 108 -33q121 -11 121 61q0 73 -180 92l59 175h150l-27 -99q228 -45 217 -194q-7 -85 -79 -127.5t-179 -42.5q-132 0 -233 43z" />
<glyph unicode="&#xb9;" horiz-adv-x="575" d="M57 1233v192q60 17 112 60.5t75 91.5h149v-659h135v-170h-458v170h135v389q-50 -53 -148 -74z" />
<glyph unicode="&#xba;" horiz-adv-x="847" d="M66 1198q0 232 82.5 330t275.5 98t275.5 -98t82.5 -330t-82.5 -330t-275.5 -98t-275.5 98t-82.5 330zM315 1198q0 -124 22 -173.5t87 -49.5t86.5 49.5t21.5 173.5t-21.5 173.5t-86.5 49.5t-87 -49.5t-22 -173.5z" />
<glyph unicode="&#xbb;" horiz-adv-x="1097" d="M123 258v225l188 162l-188 162v225l426 -303v-168zM565 258v225l191 162l-191 162v225l426 -303v-168z" />
<glyph unicode="&#xbc;" horiz-adv-x="1550" d="M57 1233v192q60 17 112 60.5t75 91.5h149v-659h135v-170h-458v170h135v389q-50 -53 -148 -74zM268 0l801 1565h213l-801 -1565h-213zM1012 172v139l231 518h213v-487h57v-170h-57v-172h-182v172h-262zM1180 338l94 4l10 260z" />
<glyph unicode="&#xbd;" horiz-adv-x="1550" d="M57 1233v192q60 17 112 60.5t75 91.5h149v-659h135v-170h-458v170h135v389q-50 -53 -148 -74zM268 0l801 1565h213l-801 -1565h-213zM1024 0q0 64 0.5 97t3.5 75.5t7 62.5t14 49t22 44.5t33.5 38t45.5 41t60 43.5q55 37 75 64.5t20 72.5q0 43 -7.5 59.5t-31.5 16.5 q-22 0 -31.5 -26.5t-9.5 -102.5l-191 24q1 61 5 98.5t17.5 74t39.5 55.5t69 30.5t107 11.5q128 0 175.5 -50t47.5 -177q0 -46 -6 -78t-15 -55.5t-34.5 -49t-49.5 -44.5t-75 -56q-60 -43 -76 -71.5t-16 -77.5h278v-170h-477z" />
<glyph unicode="&#xbe;" horiz-adv-x="1550" d="M43 1006l184 24q0 -75 13 -102t47 -27q32 0 42.5 22t10.5 72q0 51 -14 68.5t-50 17.5h-57v168h57q24 0 31.5 15t7.5 63q0 52 -7 68t-32 16q-27 0 -33.5 -22.5t-6.5 -96.5l-185 23q1 72 11 119t35.5 80.5t69.5 48t112 14.5q120 0 172.5 -50.5t52.5 -178.5 q0 -81 -16.5 -119t-53.5 -58q49 -13 72.5 -57t23.5 -137q0 -118 -55 -180t-194 -62q-76 0 -124.5 17.5t-72.5 55.5t-32.5 83t-8.5 115zM268 0l801 1565h213l-801 -1565h-213zM1012 172v139l231 518h213v-487h57v-170h-57v-172h-182v172h-262zM1180 338l94 4l10 260z" />
<glyph unicode="&#xbf;" horiz-adv-x="1003" d="M61 -49q0 86 18.5 147t65.5 106t79.5 65.5t108.5 59.5q6 3 9 5q65 35 88 66t25 81q0 53 -21 133h195q51 -112 51 -198q0 -92 -43 -147.5t-158 -114.5q-72 -41 -102.5 -81t-30.5 -106q0 -153 154 -153q95 0 133.5 56.5t38.5 197.5l264 -35q0 -121 -20.5 -204.5t-70 -144 t-134.5 -88.5t-211 -28q-230 0 -334.5 91t-104.5 292zM381 801v284h289v-284h-289z" />
<glyph unicode="&#xc0;" horiz-adv-x="1044" d="M35 0l278 1612h418l279 -1612h-281l-45 291h-326l-43 -291h-280zM268 2109h303l95 -426h-273zM393 520h256l-127 844z" />
<glyph unicode="&#xc1;" horiz-adv-x="1044" d="M35 0l278 1612h418l279 -1612h-281l-45 291h-326l-43 -291h-280zM379 1683l94 426h303l-125 -426h-272zM393 520h256l-127 844z" />
<glyph unicode="&#xc2;" horiz-adv-x="1044" d="M35 0l278 1612h418l279 -1612h-281l-45 291h-326l-43 -291h-280zM180 1683l191 426h303l190 -426h-221l-121 232l-121 -232h-221zM393 520h256l-127 844z" />
<glyph unicode="&#xc3;" horiz-adv-x="1044" d="M35 0l278 1612h418l279 -1612h-281l-45 291h-326l-43 -291h-280zM129 1765q21 337 229 334q43 0 82 -15.5t67 -37.5t52 -44.5t48 -38t46 -15.5q13 0 23.5 3.5t17 11.5t11.5 15.5t7.5 20t4 19.5t3 19.5t1.5 14.5l192 -22q-21 -337 -229 -334q-44 0 -83 15.5t-67 37.5 t-52 44t-48.5 37.5t-46.5 16.5q-58 0 -65 -99v-5zM393 520h256l-127 844z" />
<glyph unicode="&#xc4;" horiz-adv-x="1044" d="M35 0l278 1612h418l279 -1612h-281l-45 291h-326l-43 -291h-280zM154 1751v293h295v-293h-295zM393 520h256l-127 844zM596 1751v293h295v-293h-295z" />
<glyph unicode="&#xc5;" horiz-adv-x="1044" d="M35 0l278 1612h418l279 -1612h-281l-45 291h-326l-43 -291h-280zM281 1896q0 108 64 175t177 67t177.5 -67t64.5 -175t-64.5 -174.5t-177.5 -66.5t-177 66.5t-64 174.5zM393 520h256l-127 844zM430 1896q0 -46 24 -70t68 -24t68 24t24 70t-24 70.5t-68 24.5t-68 -24.5 t-24 -70.5z" />
<glyph unicode="&#xc6;" horiz-adv-x="1495" d="M27 0l446 1597h926v-247h-504l35 -410h389v-246h-369l37 -446h440v-248h-694l-18 291h-334l-74 -291h-280zM438 520h260l-53 821z" />
<glyph unicode="&#xc7;" horiz-adv-x="1107" d="M86 799q0 234 29 392.5t92 253.5t152.5 135t220.5 40q135 0 224 -27.5t140.5 -90t72.5 -150t23 -219.5l-274 -37q-2 165 -41.5 223.5t-151.5 58.5q-122 0 -165 -133.5t-43 -445.5t43 -446t165 -134q112 0 151.5 59t41.5 224l274 -35q-2 -126 -20.5 -210.5t-64 -147 t-122.5 -93t-194 -36.5l-14 -54q228 -45 217 -194q-7 -85 -79 -127.5t-179 -42.5q-133 0 -234 43l43 125q52 -27 109 -33q121 -11 121 61q0 73 -181 92l45 134q-140 18 -226.5 101.5t-130.5 257.5t-44 456z" />
<glyph unicode="&#xc8;" horiz-adv-x="964" d="M111 0v1597h757v-247h-481v-410h401v-246h-401v-446h510v-248h-786zM250 2109h303l94 -426h-272z" />
<glyph unicode="&#xc9;" horiz-adv-x="964" d="M111 0v1597h757v-247h-481v-410h401v-246h-401v-446h510v-248h-786zM360 1683l95 426h303l-125 -426h-273z" />
<glyph unicode="&#xca;" horiz-adv-x="964" d="M111 0v1597h757v-247h-481v-410h401v-246h-401v-446h510v-248h-786zM147 1683l191 426h303l190 -426h-221l-121 232l-120 -232h-222z" />
<glyph unicode="&#xcb;" horiz-adv-x="964" d="M111 0v1597h757v-247h-481v-410h401v-246h-401v-446h510v-248h-786zM131 1751v293h295v-293h-295zM573 1751v293h295v-293h-295z" />
<glyph unicode="&#xcc;" horiz-adv-x="520" d="M-4 2109h303l94 -426h-272zM121 0v1597h278v-1597h-278z" />
<glyph unicode="&#xcd;" horiz-adv-x="520" d="M121 0v1597h278v-1597h-278zM127 1683l94 426h303l-125 -426h-272z" />
<glyph unicode="&#xce;" horiz-adv-x="520" d="M-82 1683l191 426h303l190 -426h-221l-121 232l-121 -232h-221zM121 0v1597h278v-1597h-278z" />
<glyph unicode="&#xcf;" horiz-adv-x="520" d="M-88 1751v293h295v-293h-295zM121 0v1597h278v-1597h-278zM313 1751v293h295v-293h-295z" />
<glyph unicode="&#xd0;" horiz-adv-x="1251" d="M63 694v246h134v657h403q110 0 191.5 -16t146.5 -54t107 -97.5t70 -150t40 -207t12 -273.5t-12 -273.5t-40 -207t-70 -150t-107 -98t-146.5 -54.5t-191.5 -16h-403v694h-134zM475 248h133q63 0 107.5 12t76 42.5t50 69.5t28.5 107t13.5 139t3.5 181t-3.5 181t-13.5 139 t-28.5 107t-50 69.5t-76 42.5t-107.5 12h-133v-410h225v-246h-225v-446z" />
<glyph unicode="&#xd1;" horiz-adv-x="1157" d="M111 0v1597h307l235 -657l138 -399l-5 387v669h258v-1597h-307l-235 657l-135 400l4 -387l2 -670h-262zM184 1765q10 156 65 245.5t165 88.5q43 0 82 -15.5t67 -37.5t52 -44.5t48 -38t46 -15.5q15 0 26.5 6t18 13t11 22t6 22t3.5 23.5t2 17.5l193 -22 q-10 -156 -65 -245.5t-165 -88.5q-44 0 -83 15.5t-67 37.5t-52 44t-48.5 37.5t-46.5 16.5q-58 0 -65 -99v-5z" />
<glyph unicode="&#xd2;" horiz-adv-x="1134" d="M86 799q0 150 8.5 261t29 207t55.5 159t88.5 108.5t127.5 65.5t172 20q84 0 150.5 -15.5t117 -46t87 -81t61.5 -113.5t39.5 -151t20.5 -187t6 -227q0 -150 -8.5 -261t-29.5 -207t-56 -159.5t-88.5 -108.5t-127.5 -65.5t-172 -20.5t-172 20.5t-127.5 65.5t-88.5 108.5 t-55.5 159.5t-29 207t-8.5 261zM313 2109h303l95 -426h-273zM365 799q0 -337 39.5 -458.5t162.5 -121.5t163 122t40 458t-40 457.5t-163 121.5t-162.5 -121t-39.5 -458z" />
<glyph unicode="&#xd3;" horiz-adv-x="1134" d="M86 799q0 150 8.5 261t29 207t55.5 159t88.5 108.5t127.5 65.5t172 20q84 0 150.5 -15.5t117 -46t87 -81t61.5 -113.5t39.5 -151t20.5 -187t6 -227q0 -150 -8.5 -261t-29.5 -207t-56 -159.5t-88.5 -108.5t-127.5 -65.5t-172 -20.5t-172 20.5t-127.5 65.5t-88.5 108.5 t-55.5 159.5t-29 207t-8.5 261zM365 799q0 -337 39.5 -458.5t162.5 -121.5t163 122t40 458t-40 457.5t-163 121.5t-162.5 -121t-39.5 -458zM424 1683l94 426h303l-125 -426h-272z" />
<glyph unicode="&#xd4;" horiz-adv-x="1134" d="M86 799q0 150 8.5 261t29 207t55.5 159t88.5 108.5t127.5 65.5t172 20q84 0 150.5 -15.5t117 -46t87 -81t61.5 -113.5t39.5 -151t20.5 -187t6 -227q0 -150 -8.5 -261t-29.5 -207t-56 -159.5t-88.5 -108.5t-127.5 -65.5t-172 -20.5t-172 20.5t-127.5 65.5t-88.5 108.5 t-55.5 159.5t-29 207t-8.5 261zM225 1683l191 426h303l190 -426h-221l-121 232l-121 -232h-221zM365 799q0 -337 39.5 -458.5t162.5 -121.5t163 122t40 458t-40 457.5t-163 121.5t-162.5 -121t-39.5 -458z" />
<glyph unicode="&#xd5;" horiz-adv-x="1134" d="M86 799q0 150 8.5 261t29 207t55.5 159t88.5 108.5t127.5 65.5t172 20q84 0 150.5 -15.5t117 -46t87 -81t61.5 -113.5t39.5 -151t20.5 -187t6 -227q0 -150 -8.5 -261t-29.5 -207t-56 -159.5t-88.5 -108.5t-127.5 -65.5t-172 -20.5t-172 20.5t-127.5 65.5t-88.5 108.5 t-55.5 159.5t-29 207t-8.5 261zM174 1765q21 337 229 334q43 0 82 -15.5t67 -37.5t52 -44.5t48 -38t46 -15.5q13 0 23.5 3.5t17 11.5t11.5 15.5t7.5 20t4 19.5t3 19.5t1.5 14.5l192 -22q-21 -337 -229 -334q-44 0 -83 15.5t-67 37.5t-52 44t-48.5 37.5t-46.5 16.5 q-58 0 -65 -99v-5zM365 799q0 -337 39.5 -458.5t162.5 -121.5t163 122t40 458t-40 457.5t-163 121.5t-162.5 -121t-39.5 -458z" />
<glyph unicode="&#xd6;" horiz-adv-x="1134" d="M86 799q0 150 8.5 261t29 207t55.5 159t88.5 108.5t127.5 65.5t172 20q84 0 150.5 -15.5t117 -46t87 -81t61.5 -113.5t39.5 -151t20.5 -187t6 -227q0 -150 -8.5 -261t-29.5 -207t-56 -159.5t-88.5 -108.5t-127.5 -65.5t-172 -20.5t-172 20.5t-127.5 65.5t-88.5 108.5 t-55.5 159.5t-29 207t-8.5 261zM199 1751v293h295v-293h-295zM365 799q0 -337 39.5 -458.5t162.5 -121.5t163 122t40 458t-40 457.5t-163 121.5t-162.5 -121t-39.5 -458zM641 1751v293h295v-293h-295z" />
<glyph unicode="&#xd7;" horiz-adv-x="1474" d="M195 451l348 348l-348 348l194 194l348 -348l348 348l195 -194l-348 -348l348 -348l-195 -195l-348 348l-348 -348z" />
<glyph unicode="&#xd8;" horiz-adv-x="1136" d="M86 799q0 150 8.5 261t29 207t55.5 159t88.5 108.5t127.5 65.5t172 20q194 0 301 -88l33 65h115l-74 -149q60 -94 84.5 -250.5t24.5 -398.5q0 -181 -12.5 -307.5t-44.5 -229t-87 -162.5t-138.5 -91.5t-201.5 -31.5q-198 0 -303 86l-31 -63h-112l72 147q-59 96 -83 253.5 t-24 398.5zM365 799q0 -182 8 -283l358 735q-22 67 -61 97t-103 30q-123 0 -162.5 -121t-39.5 -458zM401 346q23 -68 62.5 -97.5t103.5 -29.5q123 0 163 122t40 458q0 177 -8 278z" />
<glyph unicode="&#xd9;" horiz-adv-x="1101" d="M102 414v1183h279v-1171q0 -117 32.5 -163t137.5 -46t137.5 46t32.5 163v1171h276v-1183q0 -78 -7.5 -136.5t-26.5 -110t-51.5 -86.5t-81.5 -60.5t-118.5 -37.5t-160.5 -12q-109 0 -187.5 18t-129 51.5t-80 89.5t-41 123t-11.5 161zM295 2109h303l94 -426h-272z" />
<glyph unicode="&#xda;" horiz-adv-x="1101" d="M102 414v1183h279v-1171q0 -117 32.5 -163t137.5 -46t137.5 46t32.5 163v1171h276v-1183q0 -78 -7.5 -136.5t-26.5 -110t-51.5 -86.5t-81.5 -60.5t-118.5 -37.5t-160.5 -12q-109 0 -187.5 18t-129 51.5t-80 89.5t-41 123t-11.5 161zM406 1683l94 426h303l-125 -426h-272z " />
<glyph unicode="&#xdb;" horiz-adv-x="1101" d="M102 414v1183h279v-1171q0 -117 32.5 -163t137.5 -46t137.5 46t32.5 163v1171h276v-1183q0 -78 -7.5 -136.5t-26.5 -110t-51.5 -86.5t-81.5 -60.5t-118.5 -37.5t-160.5 -12q-109 0 -187.5 18t-129 51.5t-80 89.5t-41 123t-11.5 161zM207 1683l190 426h303l191 -426h-221 l-121 232l-121 -232h-221z" />
<glyph unicode="&#xdc;" horiz-adv-x="1101" d="M102 414v1183h279v-1171q0 -117 32.5 -163t137.5 -46t137.5 46t32.5 163v1171h276v-1183q0 -78 -7.5 -136.5t-26.5 -110t-51.5 -86.5t-81.5 -60.5t-118.5 -37.5t-160.5 -12q-109 0 -187.5 18t-129 51.5t-80 89.5t-41 123t-11.5 161zM180 1751v293h295v-293h-295z M623 1751v293h295v-293h-295z" />
<glyph unicode="&#xdd;" horiz-adv-x="1056" d="M12 1597h285l231 -755l232 755h284l-380 -1046l4 -551h-277l2 551zM385 1683l94 426h303l-125 -426h-272z" />
<glyph unicode="&#xde;" horiz-adv-x="1040" d="M115 0v1597h278v-286h160q75 0 135.5 -13t117 -48t94.5 -91.5t60.5 -147.5t22.5 -212q0 -122 -22 -213.5t-59 -148t-92.5 -91.5t-115.5 -48t-135 -13h-166v-285h-278zM393 532h146q87 0 125 59t38 208q0 147 -38 205.5t-125 58.5h-146v-531z" />
<glyph unicode="&#xdf;" horiz-adv-x="1280" d="M100 0v1253q0 206 114 307t374 101q475 0 475 -367q0 -113 -44 -179.5t-130 -117.5q-50 -30 -74 -47.5t-43.5 -48.5t-19.5 -70q0 -66 32.5 -96.5t122.5 -52.5q120 -27 187.5 -67.5t100 -109t32.5 -179.5q0 -349 -412 -349q-202 0 -283 75.5t-71 256.5l237 31 q-3 -82 20 -120t95 -38q68 0 95.5 32.5t27.5 100.5q0 70 -35.5 103t-118.5 53q-158 36 -231.5 108.5t-73.5 219.5q0 65 13.5 112t43 81t60 55t80.5 47q51 24 78.5 42t47 51t19.5 79q0 80 -56 122t-163 42q-229 0 -229 -187v-1243h-271z" />
<glyph unicode="&#xe0;" horiz-adv-x="974" d="M57 309q0 86 23.5 146.5t76 102.5t127.5 67t185 41l137 20v98q0 59 -26.5 89t-90.5 30q-65 0 -92.5 -36t-27.5 -124l-275 33q0 83 17 140.5t60.5 103t123 67t199.5 21.5q149 0 232 -34.5t117 -107.5t34 -204v-479l6 -283h-242l-12 109q-54 -71 -122 -101.5t-171 -30.5 q-279 0 -279 332zM217 1638h303l94 -426h-272zM328 332q0 -137 114 -137q99 0 164 88v231l-114 -18q-84 -11 -124 -47.5t-40 -116.5z" />
<glyph unicode="&#xe1;" horiz-adv-x="974" d="M57 309q0 86 23.5 146.5t76 102.5t127.5 67t185 41l137 20v98q0 59 -26.5 89t-90.5 30q-65 0 -92.5 -36t-27.5 -124l-275 33q0 83 17 140.5t60.5 103t123 67t199.5 21.5q149 0 232 -34.5t117 -107.5t34 -204v-479l6 -283h-242l-12 109q-54 -71 -122 -101.5t-171 -30.5 q-279 0 -279 332zM328 332q0 -137 114 -137q99 0 164 88v231l-114 -18q-84 -11 -124 -47.5t-40 -116.5zM328 1212l94 426h303l-125 -426h-272z" />
<glyph unicode="&#xe2;" horiz-adv-x="974" d="M57 309q0 86 23.5 146.5t76 102.5t127.5 67t185 41l137 20v98q0 59 -26.5 89t-90.5 30q-65 0 -92.5 -36t-27.5 -124l-275 33q0 83 17 140.5t60.5 103t123 67t199.5 21.5q149 0 232 -34.5t117 -107.5t34 -204v-479l6 -283h-242l-12 109q-54 -71 -122 -101.5t-171 -30.5 q-279 0 -279 332zM129 1212l190 426h304l190 -426h-221l-121 232l-121 -232h-221zM328 332q0 -137 114 -137q99 0 164 88v231l-114 -18q-84 -11 -124 -47.5t-40 -116.5z" />
<glyph unicode="&#xe3;" horiz-adv-x="974" d="M57 309q0 86 23.5 146.5t76 102.5t127.5 67t185 41l137 20v98q0 59 -26.5 89t-90.5 30q-65 0 -92.5 -36t-27.5 -124l-275 33q0 83 17 140.5t60.5 103t123 67t199.5 21.5q149 0 232 -34.5t117 -107.5t34 -204v-479l6 -283h-242l-12 109q-54 -71 -122 -101.5t-171 -30.5 q-279 0 -279 332zM78 1294q21 337 229 334q43 0 82 -15.5t67 -38t52 -44.5t48 -37.5t46 -15.5q13 0 23.5 3.5t17 11.5t11.5 15.5t7.5 20t4 19.5t3 19.5t1.5 14.5l192 -22q-21 -337 -229 -334q-44 0 -83 15.5t-67 37.5t-52 44t-48.5 37.5t-46.5 16.5q-21 1 -35 -10t-20.5 -33 t-8 -31.5t-2.5 -29.5zM328 332q0 -137 114 -137q99 0 164 88v231l-114 -18q-84 -11 -124 -47.5t-40 -116.5z" />
<glyph unicode="&#xe4;" horiz-adv-x="974" d="M57 309q0 86 23.5 146.5t76 102.5t127.5 67t185 41l137 20v98q0 59 -26.5 89t-90.5 30q-65 0 -92.5 -36t-27.5 -124l-275 33q0 83 17 140.5t60.5 103t123 67t199.5 21.5q149 0 232 -34.5t117 -107.5t34 -204v-479l6 -283h-242l-12 109q-54 -71 -122 -101.5t-171 -30.5 q-279 0 -279 332zM113 1288v281h284v-281h-284zM328 332q0 -137 114 -137q99 0 164 88v231l-114 -18q-84 -11 -124 -47.5t-40 -116.5zM545 1288v281h284v-281h-284z" />
<glyph unicode="&#xe5;" horiz-adv-x="974" d="M57 309q0 86 23.5 146.5t76 102.5t127.5 67t185 41l137 20v98q0 59 -26.5 89t-90.5 30q-65 0 -92.5 -36t-27.5 -124l-275 33q0 83 17 140.5t60.5 103t123 67t199.5 21.5q149 0 232 -34.5t117 -107.5t34 -204v-479l6 -283h-242l-12 109q-54 -71 -122 -101.5t-171 -30.5 q-279 0 -279 332zM229 1425q0 108 64.5 175t177.5 67t177.5 -67t64.5 -175t-64.5 -174.5t-177.5 -66.5t-177.5 66.5t-64.5 174.5zM328 332q0 -137 114 -137q99 0 164 88v231l-114 -18q-84 -11 -124 -47.5t-40 -116.5zM379 1425q0 -46 24 -70t68 -24t68 24t24 70t-24 70.5 t-68 24.5t-68 -24.5t-24 -70.5z" />
<glyph unicode="&#xe6;" horiz-adv-x="1507" d="M57 303q0 171 100 248.5t318 77.5h131v155q0 59 -26.5 89t-90.5 30q-65 0 -92.5 -36t-27.5 -124l-275 33q0 83 17 140.5t60.5 103t123 67t199.5 21.5q195 0 272 -96q93 96 262 96q100 0 173 -24t120 -68t75 -116t39 -157t11 -202v-80h-563q0 -141 29.5 -204.5 t113.5 -63.5q71 0 102 35t31 108l275 -35q0 -60 -9 -105.5t-35 -88.5t-69.5 -70t-116 -43.5t-170.5 -16.5q-231 0 -329 119q-139 -119 -326 -119q-166 0 -244 88.5t-78 237.5zM328 326q0 -131 114 -131q111 0 176 100q-16 96 -18 166h-106q-85 0 -125.5 -30.5t-40.5 -104.5z M883 629h276q0 144 -27 204t-108 60q-80 0 -110.5 -60t-30.5 -204z" />
<glyph unicode="&#xe7;" horiz-adv-x="933" d="M66 543q0 308 97.5 436.5t328.5 128.5q117 0 195.5 -24t119.5 -72.5t56.5 -107t15.5 -142.5l-261 -35q0 76 -25 111.5t-101 35.5q-87 0 -122.5 -71.5t-35.5 -259.5t35.5 -260t122.5 -72q76 0 101 35.5t25 111.5l261 -34q0 -78 -14 -134.5t-49.5 -104t-103 -74 t-167.5 -31.5l-15 -54q229 -45 218 -194q-7 -85 -79.5 -127.5t-179.5 -42.5q-132 0 -233 43l43 125q52 -27 109 -33q120 -11 120 61q0 73 -180 92l45 134q-176 25 -251.5 154.5t-75.5 404.5z" />
<glyph unicode="&#xe8;" horiz-adv-x="970" d="M66 543q0 146 19.5 246t67 174.5t131.5 109.5t208 35q100 0 173 -24t120.5 -68t75.5 -116t39 -157t11 -202v-95h-563q0 -134 29.5 -193.5t114.5 -59.5q71 0 102 35t31 108l272 -35q0 -60 -9 -105.5t-34.5 -88.5t-69 -70t-115.5 -43.5t-171 -16.5q-104 0 -179.5 24 t-124 68t-77 116t-40 157t-11.5 201zM231 1638h304l94 -426h-273zM348 643h277q-2 135 -30 192.5t-106 57.5t-108.5 -57t-32.5 -193z" />
<glyph unicode="&#xe9;" horiz-adv-x="970" d="M66 543q0 146 19.5 246t67 174.5t131.5 109.5t208 35q100 0 173 -24t120.5 -68t75.5 -116t39 -157t11 -202v-95h-563q0 -134 29.5 -193.5t114.5 -59.5q71 0 102 35t31 108l272 -35q0 -60 -9 -105.5t-34.5 -88.5t-69 -70t-115.5 -43.5t-171 -16.5q-104 0 -179.5 24 t-124 68t-77 116t-40 157t-11.5 201zM342 1212l94 426h303l-125 -426h-272zM348 643h277q-2 135 -30 192.5t-106 57.5t-108.5 -57t-32.5 -193z" />
<glyph unicode="&#xea;" horiz-adv-x="970" d="M66 543q0 146 19.5 246t67 174.5t131.5 109.5t208 35q100 0 173 -24t120.5 -68t75.5 -116t39 -157t11 -202v-95h-563q0 -134 29.5 -193.5t114.5 -59.5q71 0 102 35t31 108l272 -35q0 -60 -9 -105.5t-34.5 -88.5t-69 -70t-115.5 -43.5t-171 -16.5q-104 0 -179.5 24 t-124 68t-77 116t-40 157t-11.5 201zM143 1212l191 426h303l190 -426h-221l-121 232l-120 -232h-222zM348 643h277q-2 135 -30 192.5t-106 57.5t-108.5 -57t-32.5 -193z" />
<glyph unicode="&#xeb;" horiz-adv-x="970" d="M66 543q0 146 19.5 246t67 174.5t131.5 109.5t208 35q100 0 173 -24t120.5 -68t75.5 -116t39 -157t11 -202v-95h-563q0 -134 29.5 -193.5t114.5 -59.5q71 0 102 35t31 108l272 -35q0 -60 -9 -105.5t-34.5 -88.5t-69 -70t-115.5 -43.5t-171 -16.5q-104 0 -179.5 24 t-124 68t-77 116t-40 157t-11.5 201zM127 1288v281h285v-281h-285zM348 643h277q-2 135 -30 192.5t-106 57.5t-108.5 -57t-32.5 -193zM559 1288v281h285v-281h-285z" />
<glyph unicode="&#xec;" horiz-adv-x="473" d="M-27 1638h303l95 -426h-273zM102 0v1085h269v-1085h-269z" />
<glyph unicode="&#xed;" horiz-adv-x="473" d="M100 1212l95 426h303l-125 -426h-273zM102 0v1085h269v-1085h-269z" />
<glyph unicode="&#xee;" horiz-adv-x="473" d="M-106 1212l190 426h303l191 -426h-222l-120 232l-121 -232h-221zM102 0v1085h269v-1085h-269z" />
<glyph unicode="&#xef;" horiz-adv-x="473" d="M-102 1288v281h284v-281h-284zM102 0v1085h269v-1085h-269zM289 1288v281h284v-281h-284z" />
<glyph unicode="&#xf0;" horiz-adv-x="989" d="M66 543q0 158 26.5 269.5t78 175t118 92t155.5 28.5q121 0 191 -76q-53 162 -135 277l-350 -125v180l231 82q-108 106 -275 192h343q79 -52 147 -114l274 98v-180l-157 -58q211 -297 211 -837v-4q0 -163 -24.5 -271.5t-78 -174t-131.5 -93t-194 -27.5q-93 0 -160.5 17.5 t-120.5 57t-85 105t-48 160.5t-16 226zM334 543q0 -129 18 -202t52 -100.5t92 -27.5q57 0 90.5 27.5t51 100.5t17.5 202t-17.5 201.5t-51 100t-90.5 27.5q-58 0 -92 -27t-52 -100t-18 -202z" />
<glyph unicode="&#xf1;" horiz-adv-x="1030" d="M94 1085h240l12 -108q62 65 137.5 98t182.5 33q272 0 272 -291v-817h-268v754q0 116 -113 116q-116 0 -186 -102v-768h-271v803zM123 1294q21 337 229 334q43 0 82 -15.5t67 -38t52 -44.5t48 -37.5t46 -15.5q13 0 23.5 3.5t17 11.5t11.5 15.5t7.5 20t4 19.5t3 19.5 t1.5 14.5l192 -22q-21 -337 -229 -334q-44 0 -83 15.5t-67 37.5t-52 44t-48.5 37.5t-46.5 16.5q-21 1 -35 -10t-20.5 -33t-8 -31.5t-2.5 -29.5z" />
<glyph unicode="&#xf2;" horiz-adv-x="991" d="M66 543q0 129 16 224t48 160.5t84.5 105.5t120.5 57.5t161 17.5q155 0 246.5 -50.5t137.5 -174.5t46 -340q0 -214 -46 -338.5t-137.5 -176t-246.5 -51.5q-93 0 -160.5 17.5t-120.5 57t-85 105t-48 160.5t-16 226zM240 1638h303l94 -426h-272zM334 543q0 -129 18 -202 t52 -100.5t92 -27.5t91.5 27.5t51.5 100t18 202.5q0 129 -18 201.5t-51.5 100t-91.5 27.5t-92 -27t-52 -100t-18 -202z" />
<glyph unicode="&#xf3;" horiz-adv-x="991" d="M66 543q0 129 16 224t48 160.5t84.5 105.5t120.5 57.5t161 17.5q155 0 246.5 -50.5t137.5 -174.5t46 -340q0 -214 -46 -338.5t-137.5 -176t-246.5 -51.5q-93 0 -160.5 17.5t-120.5 57t-85 105t-48 160.5t-16 226zM334 543q0 -129 18 -202t52 -100.5t92 -27.5t91.5 27.5 t51.5 100t18 202.5q0 129 -18 201.5t-51.5 100t-91.5 27.5t-92 -27t-52 -100t-18 -202zM350 1212l94 426h304l-125 -426h-273z" />
<glyph unicode="&#xf4;" horiz-adv-x="991" d="M66 543q0 129 16 224t48 160.5t84.5 105.5t120.5 57.5t161 17.5q155 0 246.5 -50.5t137.5 -174.5t46 -340q0 -214 -46 -338.5t-137.5 -176t-246.5 -51.5q-93 0 -160.5 17.5t-120.5 57t-85 105t-48 160.5t-16 226zM152 1212l190 426h303l191 -426h-222l-120 232l-121 -232 h-221zM334 543q0 -129 18 -202t52 -100.5t92 -27.5t91.5 27.5t51.5 100t18 202.5q0 129 -18 201.5t-51.5 100t-91.5 27.5t-92 -27t-52 -100t-18 -202z" />
<glyph unicode="&#xf5;" horiz-adv-x="991" d="M66 543q0 129 16 224t48 160.5t84.5 105.5t120.5 57.5t161 17.5q155 0 246.5 -50.5t137.5 -174.5t46 -340q0 -214 -46 -338.5t-137.5 -176t-246.5 -51.5q-93 0 -160.5 17.5t-120.5 57t-85 105t-48 160.5t-16 226zM100 1294q10 156 65 245.5t165 88.5q43 0 82 -15.5 t67 -38t52 -44.5t48 -37.5t46 -15.5q15 0 26.5 6t18 13t11 22t6 22t3.5 23.5t2 17.5l193 -22q-10 -156 -65 -245.5t-165 -88.5q-44 0 -83 15.5t-67 37.5t-52 44t-48.5 37.5t-46.5 16.5q-58 0 -65 -99v-5zM334 543q0 -129 18 -202t52 -100.5t92 -27.5t91.5 27.5t51.5 100 t18 202.5q0 129 -18 201.5t-51.5 100t-91.5 27.5t-92 -27t-52 -100t-18 -202z" />
<glyph unicode="&#xf6;" horiz-adv-x="991" d="M66 543q0 129 16 224t48 160.5t84.5 105.5t120.5 57.5t161 17.5q155 0 246.5 -50.5t137.5 -174.5t46 -340q0 -214 -46 -338.5t-137.5 -176t-246.5 -51.5q-93 0 -160.5 17.5t-120.5 57t-85 105t-48 160.5t-16 226zM135 1288v281h285v-281h-285zM334 543q0 -129 18 -202 t52 -100.5t92 -27.5t91.5 27.5t51.5 100t18 202.5q0 129 -18 201.5t-51.5 100t-91.5 27.5t-92 -27t-52 -100t-18 -202zM567 1288v281h285v-281h-285z" />
<glyph unicode="&#xf7;" horiz-adv-x="1474" d="M184 662v274h1106v-274h-1106zM584 246v307h307v-307h-307zM584 1044v308h307v-308h-307z" />
<glyph unicode="&#xf8;" horiz-adv-x="989" d="M66 543q0 129 16 224t48 160.5t84.5 105.5t120.5 57.5t161 17.5q169 0 266 -66l29 43h110l-72 -110q95 -133 95 -432q0 -163 -24.5 -271.5t-78 -174t-131.5 -93t-194 -27.5q-171 0 -271 66l-26 -43h-111l70 109q-92 129 -92 434zM334 543q0 -95 8 -150l270 418 q-37 61 -116 61q-58 0 -92 -27t-52 -100t-18 -202zM377 274q35 -61 119 -61q57 0 90.5 27.5t51 100.5t17.5 202q0 67 -8 149z" />
<glyph unicode="&#xf9;" horiz-adv-x="1030" d="M92 270v815h268v-753q0 -117 111 -117q115 0 188 102v768h271v-802l6 -283h-240l-12 109q-62 -66 -137 -99t-182 -33q-273 0 -273 293zM260 1638h303l94 -426h-272z" />
<glyph unicode="&#xfa;" horiz-adv-x="1030" d="M92 270v815h268v-753q0 -117 111 -117q115 0 188 102v768h271v-802l6 -283h-240l-12 109q-62 -66 -137 -99t-182 -33q-273 0 -273 293zM371 1212l94 426h303l-125 -426h-272z" />
<glyph unicode="&#xfb;" horiz-adv-x="1030" d="M92 270v815h268v-753q0 -117 111 -117q115 0 188 102v768h271v-802l6 -283h-240l-12 109q-62 -66 -137 -99t-182 -33q-273 0 -273 293zM172 1212l190 426h304l190 -426h-221l-121 232l-121 -232h-221z" />
<glyph unicode="&#xfc;" horiz-adv-x="1030" d="M92 270v815h268v-753q0 -117 111 -117q115 0 188 102v768h271v-802l6 -283h-240l-12 109q-62 -66 -137 -99t-182 -33q-273 0 -273 293zM156 1288v281h284v-281h-284zM588 1288v281h284v-281h-284z" />
<glyph unicode="&#xfd;" horiz-adv-x="985" d="M33 1085h284l175 -780l174 780h286l-315 -1054l-150 -441h-303l160 406zM348 1212l94 426h303l-124 -426h-273z" />
<glyph unicode="&#xfe;" horiz-adv-x="1038" d="M100 -410v2048h271v-641q46 56 101.5 83.5t143.5 27.5q181 0 269 -137t88 -428t-88 -428.5t-269 -137.5q-88 0 -143.5 27.5t-101.5 83.5v-498h-271zM371 319q81 -104 172 -104q90 0 121.5 72.5t31.5 255.5t-31.5 255t-121.5 72q-91 0 -172 -104v-447z" />
<glyph unicode="&#xff;" horiz-adv-x="985" d="M33 1085h284l175 -780l174 780h286l-315 -1054l-150 -441h-303l160 406zM133 1288v281h285v-281h-285zM565 1288v281h285v-281h-285z" />
<glyph unicode="&#x152;" horiz-adv-x="1533" d="M84 799q0 157 12 273.5t40 207t70 150t107 97.5t146.5 54t191.5 16h787v-247h-453v-410h373v-246h-373v-446h481v-248h-815q-110 0 -191.5 16t-146.5 54.5t-107 98t-70 150t-40 207t-12 273.5zM365 799q0 -82 1.5 -139.5t6.5 -115.5t13.5 -96t23 -74.5t34.5 -57.5 t48.5 -38t65 -23.5t83.5 -6.5h68v1102h-68q-47 0 -83.5 -6.5t-65 -23.5t-48.5 -38t-34.5 -57.5t-23 -74.5t-13.5 -96t-6.5 -115.5t-1.5 -139.5z" />
<glyph unicode="&#x153;" horiz-adv-x="1560" d="M66 543q0 129 16 224t48 160.5t84.5 105.5t120.5 57.5t161 17.5q200 0 292 -137q90 137 293 137q100 0 173 -24t120.5 -68t76 -115.5t39.5 -157t11 -202.5v-80h-563q0 -56 3 -95t12.5 -74t25 -55.5t41 -32t61.5 -11.5q70 0 100.5 34.5t30.5 108.5l275 -35 q0 -60 -9 -105.5t-34.5 -88.5t-69.5 -70t-116 -43.5t-171 -16.5q-208 0 -301 134q-92 -134 -290 -134q-93 0 -160.5 17.5t-120.5 57t-85 105t-48 160.5t-16 226zM334 543q0 -129 18 -202t52 -100.5t92 -27.5q57 0 90.5 27.5t51 100.5t17.5 202t-17.5 201.5t-51 100 t-90.5 27.5q-58 0 -92 -27t-52 -100t-18 -202zM938 629h274q0 144 -27 204t-106 60q-80 0 -110.5 -60t-30.5 -204z" />
<glyph unicode="&#x178;" horiz-adv-x="1056" d="M12 1597h285l231 -755l232 755h284l-380 -1046l4 -551h-277l2 551zM160 1751v293h295v-293h-295zM602 1751v293h295v-293h-295z" />
<glyph unicode="&#x2c6;" horiz-adv-x="1269" d="M293 1212l190 426h303l191 -426h-221l-121 232l-121 -232h-221z" />
<glyph unicode="&#x2dc;" horiz-adv-x="1269" d="M242 1294q21 337 229 334q43 0 82 -15.5t67 -38t52 -44.5t48 -37.5t46 -15.5q13 0 23.5 3.5t17 11.5t11.5 15.5t7.5 20t4 19.5t3 19.5t1.5 14.5l192 -22q-21 -337 -229 -334q-44 0 -83 15.5t-67 37.5t-52 44t-48.5 37.5t-46.5 16.5q-21 1 -35 -10t-20.5 -33t-8 -31.5 t-2.5 -29.5z" />
<glyph unicode="&#x2000;" horiz-adv-x="1069" />
<glyph unicode="&#x2001;" horiz-adv-x="2138" />
<glyph unicode="&#x2002;" horiz-adv-x="1069" />
<glyph unicode="&#x2003;" horiz-adv-x="2138" />
<glyph unicode="&#x2004;" horiz-adv-x="712" />
<glyph unicode="&#x2005;" horiz-adv-x="534" />
<glyph unicode="&#x2006;" horiz-adv-x="356" />
<glyph unicode="&#x2007;" horiz-adv-x="356" />
<glyph unicode="&#x2008;" horiz-adv-x="267" />
<glyph unicode="&#x2009;" horiz-adv-x="427" />
<glyph unicode="&#x200a;" horiz-adv-x="118" />
<glyph unicode="&#x2010;" horiz-adv-x="823" d="M115 559v254h594v-254h-594z" />
<glyph unicode="&#x2011;" horiz-adv-x="823" d="M115 559v254h594v-254h-594z" />
<glyph unicode="&#x2012;" horiz-adv-x="823" d="M115 559v254h594v-254h-594z" />
<glyph unicode="&#x2013;" d="M115 559v254h835v-254h-835z" />
<glyph unicode="&#x2014;" horiz-adv-x="2088" d="M115 559v254h1859v-254h-1859z" />
<glyph unicode="&#x2018;" horiz-adv-x="432" d="M4 1085l123 512h221l-39 -512h-305z" />
<glyph unicode="&#x2019;" horiz-adv-x="432" d="M84 1085l39 512h305l-123 -512h-221z" />
<glyph unicode="&#x201a;" horiz-adv-x="432" d="M55 -336l39 512h305l-123 -512h-221z" />
<glyph unicode="&#x201c;" horiz-adv-x="788" d="M4 1085l123 512h221l-39 -512h-305zM373 1085l121 512h223l-39 -512h-305z" />
<glyph unicode="&#x201d;" horiz-adv-x="798" d="M84 1085l39 512h305l-123 -512h-221zM451 1085l38 512h306l-121 -512h-223z" />
<glyph unicode="&#x201e;" horiz-adv-x="798" d="M55 -336l39 512h305l-123 -512h-221zM424 -336l39 512h303l-121 -512h-221z" />
<glyph unicode="&#x2022;" horiz-adv-x="911" d="M135 365v643h641v-643h-641z" />
<glyph unicode="&#x2026;" horiz-adv-x="2088" d="M225 0v285h289v-285h-289zM901 0v285h287v-285h-287zM1575 0v285h289v-285h-289z" />
<glyph unicode="&#x202f;" horiz-adv-x="427" />
<glyph unicode="&#x2039;" horiz-adv-x="655" d="M106 561v168l426 303v-225l-188 -162l188 -162v-225z" />
<glyph unicode="&#x203a;" horiz-adv-x="655" d="M123 258v225l188 162l-188 162v225l426 -303v-168z" />
<glyph unicode="&#x205f;" horiz-adv-x="534" />
<glyph unicode="&#x20ac;" horiz-adv-x="1120" d="M53 537v178h127v135h-127v178h133q20 311 121.5 435t341.5 124q127 0 210 -24t129.5 -78t64.5 -128t18 -186l-274 -34q-3 120 -36.5 165.5t-123.5 45.5q-92 0 -130.5 -71t-47.5 -249h403l-49 -178h-358v-135h317l-49 -178h-264q9 -179 47 -249.5t131 -70.5 q90 0 123.5 45.5t36.5 165.5l274 -35q0 -112 -18 -186t-64.5 -128t-129.5 -78t-210 -24q-240 0 -341.5 124t-121.5 436h-133z" />
<glyph unicode="&#x2122;" horiz-adv-x="1251" d="M31 1456v141h471v-141h-162v-412h-147v412h-162zM565 1044v553h209l94 -282l25 -80l25 80l94 282h209v-553h-152v248l2 76l-22 -68l-86 -256h-140l-86 256l-22 68l2 -76v-248h-152z" />
<glyph unicode="&#xe000;" horiz-adv-x="1085" d="M0 0v1085h1085v-1085h-1085z" />
<glyph unicode="&#xfb01;" horiz-adv-x="1167" d="M49 860v225h121v279q0 144 83.5 220.5t248.5 76.5q107 0 172 -25l-15 -223q-48 19 -104 19q-61 0 -89 -24t-28 -83v-240h197v-225h-197v-860h-268v860h-121zM788 1288v281h285v-281h-285zM797 0v1085h268v-1085h-268z" />
<glyph unicode="&#xfb02;" horiz-adv-x="1169" d="M49 860v225h121v279q0 144 83.5 220.5t248.5 76.5q107 0 172 -25l-15 -223q-48 19 -104 19q-61 0 -89 -24t-28 -83v-240h197v-225h-197v-860h-268v860h-121zM797 0v1638h270v-1638h-270z" />
</font>
</defs>
</svg>
